<?xml version="1.0" encoding="utf-8" standalone="no"?>
<!DOCTYPE svg PUBLIC "-//W3C//DTD SVG 1.1//EN"
  "http://www.w3.org/Graphics/SVG/1.1/DTD/svg11.dtd">
<!-- Created with matplotlib (https://matplotlib.org/) -->
<svg height="712.08pt" version="1.1" viewBox="0 0 1339.92 712.08" width="1339.92pt" xmlns="http://www.w3.org/2000/svg" xmlns:xlink="http://www.w3.org/1999/xlink">
 <metadata>
  <rdf:RDF xmlns:cc="http://creativecommons.org/ns#" xmlns:dc="http://purl.org/dc/elements/1.1/" xmlns:rdf="http://www.w3.org/1999/02/22-rdf-syntax-ns#">
   <cc:Work>
    <dc:type rdf:resource="http://purl.org/dc/dcmitype/StillImage"/>
    <dc:date>2020-10-09T01:43:55.482586</dc:date>
    <dc:format>image/svg+xml</dc:format>
    <dc:creator>
     <cc:Agent>
      <dc:title>Matplotlib v3.3.2, https://matplotlib.org/</dc:title>
     </cc:Agent>
    </dc:creator>
   </cc:Work>
  </rdf:RDF>
 </metadata>
 <defs>
  <style type="text/css">*{stroke-linecap:butt;stroke-linejoin:round;}</style>
 </defs>
 <g id="figure_1">
  <g id="patch_1">
   <path d="M 0 712.08 
L 1339.92 712.08 
L 1339.92 0 
L 0 0 
z
" style="fill:#ffffff;"/>
  </g>
  <g id="axes_1">
   <g id="patch_2">
    <path d="M 133.992 569.664 
L 1272.924 569.664 
L 1272.924 35.604 
L 133.992 35.604 
z
" style="fill:#ffffff;"/>
   </g>
   <g id="matplotlib.axis_1">
    <g id="xtick_1">
     <g id="line2d_1">
      <defs>
       <path d="M 0 0 
L 0 3.5 
" id="mf196316974" style="stroke:#000000;stroke-width:0.8;"/>
      </defs>
      <g>
       <use style="stroke:#000000;stroke-width:0.8;" x="155.864494" xlink:href="#mf196316974" y="569.664"/>
      </g>
     </g>
     <g id="text_1">
      <!-- ene -->
      <g transform="translate(146.542619 584.262438)scale(0.1 -0.1)">
       <defs>
        <path d="M 56.203125 29.59375 
L 56.203125 25.203125 
L 14.890625 25.203125 
Q 15.484375 15.921875 20.484375 11.0625 
Q 25.484375 6.203125 34.421875 6.203125 
Q 39.59375 6.203125 44.453125 7.46875 
Q 49.3125 8.734375 54.109375 11.28125 
L 54.109375 2.78125 
Q 49.265625 0.734375 44.1875 -0.34375 
Q 39.109375 -1.421875 33.890625 -1.421875 
Q 20.796875 -1.421875 13.15625 6.1875 
Q 5.515625 13.8125 5.515625 26.8125 
Q 5.515625 40.234375 12.765625 48.109375 
Q 20.015625 56 32.328125 56 
Q 43.359375 56 49.78125 48.890625 
Q 56.203125 41.796875 56.203125 29.59375 
z
M 47.21875 32.234375 
Q 47.125 39.59375 43.09375 43.984375 
Q 39.0625 48.390625 32.421875 48.390625 
Q 24.90625 48.390625 20.390625 44.140625 
Q 15.875 39.890625 15.1875 32.171875 
z
" id="DejaVuSans-101"/>
        <path d="M 54.890625 33.015625 
L 54.890625 0 
L 45.90625 0 
L 45.90625 32.71875 
Q 45.90625 40.484375 42.875 44.328125 
Q 39.84375 48.1875 33.796875 48.1875 
Q 26.515625 48.1875 22.3125 43.546875 
Q 18.109375 38.921875 18.109375 30.90625 
L 18.109375 0 
L 9.078125 0 
L 9.078125 54.6875 
L 18.109375 54.6875 
L 18.109375 46.1875 
Q 21.34375 51.125 25.703125 53.5625 
Q 30.078125 56 35.796875 56 
Q 45.21875 56 50.046875 50.171875 
Q 54.890625 44.34375 54.890625 33.015625 
z
" id="DejaVuSans-110"/>
       </defs>
       <use xlink:href="#DejaVuSans-101"/>
       <use x="61.523438" xlink:href="#DejaVuSans-110"/>
       <use x="124.902344" xlink:href="#DejaVuSans-101"/>
      </g>
     </g>
    </g>
    <g id="xtick_2">
     <g id="line2d_2">
      <g>
       <use style="stroke:#000000;stroke-width:0.8;" x="204.296444" xlink:href="#mf196316974" y="569.664"/>
      </g>
     </g>
     <g id="text_2">
      <!-- feb -->
      <g transform="translate(196.285507 584.262438)scale(0.1 -0.1)">
       <defs>
        <path d="M 37.109375 75.984375 
L 37.109375 68.5 
L 28.515625 68.5 
Q 23.6875 68.5 21.796875 66.546875 
Q 19.921875 64.59375 19.921875 59.515625 
L 19.921875 54.6875 
L 34.71875 54.6875 
L 34.71875 47.703125 
L 19.921875 47.703125 
L 19.921875 0 
L 10.890625 0 
L 10.890625 47.703125 
L 2.296875 47.703125 
L 2.296875 54.6875 
L 10.890625 54.6875 
L 10.890625 58.5 
Q 10.890625 67.625 15.140625 71.796875 
Q 19.390625 75.984375 28.609375 75.984375 
z
" id="DejaVuSans-102"/>
        <path d="M 48.6875 27.296875 
Q 48.6875 37.203125 44.609375 42.84375 
Q 40.53125 48.484375 33.40625 48.484375 
Q 26.265625 48.484375 22.1875 42.84375 
Q 18.109375 37.203125 18.109375 27.296875 
Q 18.109375 17.390625 22.1875 11.75 
Q 26.265625 6.109375 33.40625 6.109375 
Q 40.53125 6.109375 44.609375 11.75 
Q 48.6875 17.390625 48.6875 27.296875 
z
M 18.109375 46.390625 
Q 20.953125 51.265625 25.265625 53.625 
Q 29.59375 56 35.59375 56 
Q 45.5625 56 51.78125 48.09375 
Q 58.015625 40.1875 58.015625 27.296875 
Q 58.015625 14.40625 51.78125 6.484375 
Q 45.5625 -1.421875 35.59375 -1.421875 
Q 29.59375 -1.421875 25.265625 0.953125 
Q 20.953125 3.328125 18.109375 8.203125 
L 18.109375 0 
L 9.078125 0 
L 9.078125 75.984375 
L 18.109375 75.984375 
z
" id="DejaVuSans-98"/>
       </defs>
       <use xlink:href="#DejaVuSans-102"/>
       <use x="35.205078" xlink:href="#DejaVuSans-101"/>
       <use x="96.728516" xlink:href="#DejaVuSans-98"/>
      </g>
     </g>
    </g>
    <g id="xtick_3">
     <g id="line2d_3">
      <g>
       <use style="stroke:#000000;stroke-width:0.8;" x="248.041432" xlink:href="#mf196316974" y="569.664"/>
      </g>
     </g>
     <g id="text_3">
      <!-- mar -->
      <g transform="translate(238.051588 584.262438)scale(0.1 -0.1)">
       <defs>
        <path d="M 52 44.1875 
Q 55.375 50.25 60.0625 53.125 
Q 64.75 56 71.09375 56 
Q 79.640625 56 84.28125 50.015625 
Q 88.921875 44.046875 88.921875 33.015625 
L 88.921875 0 
L 79.890625 0 
L 79.890625 32.71875 
Q 79.890625 40.578125 77.09375 44.375 
Q 74.3125 48.1875 68.609375 48.1875 
Q 61.625 48.1875 57.5625 43.546875 
Q 53.515625 38.921875 53.515625 30.90625 
L 53.515625 0 
L 44.484375 0 
L 44.484375 32.71875 
Q 44.484375 40.625 41.703125 44.40625 
Q 38.921875 48.1875 33.109375 48.1875 
Q 26.21875 48.1875 22.15625 43.53125 
Q 18.109375 38.875 18.109375 30.90625 
L 18.109375 0 
L 9.078125 0 
L 9.078125 54.6875 
L 18.109375 54.6875 
L 18.109375 46.1875 
Q 21.1875 51.21875 25.484375 53.609375 
Q 29.78125 56 35.6875 56 
Q 41.65625 56 45.828125 52.96875 
Q 50 49.953125 52 44.1875 
z
" id="DejaVuSans-109"/>
        <path d="M 34.28125 27.484375 
Q 23.390625 27.484375 19.1875 25 
Q 14.984375 22.515625 14.984375 16.5 
Q 14.984375 11.71875 18.140625 8.90625 
Q 21.296875 6.109375 26.703125 6.109375 
Q 34.1875 6.109375 38.703125 11.40625 
Q 43.21875 16.703125 43.21875 25.484375 
L 43.21875 27.484375 
z
M 52.203125 31.203125 
L 52.203125 0 
L 43.21875 0 
L 43.21875 8.296875 
Q 40.140625 3.328125 35.546875 0.953125 
Q 30.953125 -1.421875 24.3125 -1.421875 
Q 15.921875 -1.421875 10.953125 3.296875 
Q 6 8.015625 6 15.921875 
Q 6 25.140625 12.171875 29.828125 
Q 18.359375 34.515625 30.609375 34.515625 
L 43.21875 34.515625 
L 43.21875 35.40625 
Q 43.21875 41.609375 39.140625 45 
Q 35.0625 48.390625 27.6875 48.390625 
Q 23 48.390625 18.546875 47.265625 
Q 14.109375 46.140625 10.015625 43.890625 
L 10.015625 52.203125 
Q 14.9375 54.109375 19.578125 55.046875 
Q 24.21875 56 28.609375 56 
Q 40.484375 56 46.34375 49.84375 
Q 52.203125 43.703125 52.203125 31.203125 
z
" id="DejaVuSans-97"/>
        <path d="M 41.109375 46.296875 
Q 39.59375 47.171875 37.8125 47.578125 
Q 36.03125 48 33.890625 48 
Q 26.265625 48 22.1875 43.046875 
Q 18.109375 38.09375 18.109375 28.8125 
L 18.109375 0 
L 9.078125 0 
L 9.078125 54.6875 
L 18.109375 54.6875 
L 18.109375 46.1875 
Q 20.953125 51.171875 25.484375 53.578125 
Q 30.03125 56 36.53125 56 
Q 37.453125 56 38.578125 55.875 
Q 39.703125 55.765625 41.0625 55.515625 
z
" id="DejaVuSans-114"/>
       </defs>
       <use xlink:href="#DejaVuSans-109"/>
       <use x="97.412109" xlink:href="#DejaVuSans-97"/>
       <use x="158.691406" xlink:href="#DejaVuSans-114"/>
      </g>
     </g>
    </g>
    <g id="xtick_4">
     <g id="line2d_4">
      <g>
       <use style="stroke:#000000;stroke-width:0.8;" x="296.473383" xlink:href="#mf196316974" y="569.664"/>
      </g>
     </g>
     <g id="text_4">
      <!-- abr -->
      <g transform="translate(288.179633 584.262438)scale(0.1 -0.1)">
       <use xlink:href="#DejaVuSans-97"/>
       <use x="61.279297" xlink:href="#DejaVuSans-98"/>
       <use x="124.755859" xlink:href="#DejaVuSans-114"/>
      </g>
     </g>
    </g>
    <g id="xtick_5">
     <g id="line2d_5">
      <g>
       <use style="stroke:#000000;stroke-width:0.8;" x="343.343012" xlink:href="#mf196316974" y="569.664"/>
      </g>
     </g>
     <g id="text_5">
      <!-- may -->
      <g transform="translate(332.449262 584.262438)scale(0.1 -0.1)">
       <defs>
        <path d="M 32.171875 -5.078125 
Q 28.375 -14.84375 24.75 -17.8125 
Q 21.140625 -20.796875 15.09375 -20.796875 
L 7.90625 -20.796875 
L 7.90625 -13.28125 
L 13.1875 -13.28125 
Q 16.890625 -13.28125 18.9375 -11.515625 
Q 21 -9.765625 23.484375 -3.21875 
L 25.09375 0.875 
L 2.984375 54.6875 
L 12.5 54.6875 
L 29.59375 11.921875 
L 46.6875 54.6875 
L 56.203125 54.6875 
z
" id="DejaVuSans-121"/>
       </defs>
       <use xlink:href="#DejaVuSans-109"/>
       <use x="97.412109" xlink:href="#DejaVuSans-97"/>
       <use x="158.691406" xlink:href="#DejaVuSans-121"/>
      </g>
     </g>
    </g>
    <g id="xtick_6">
     <g id="line2d_6">
      <g>
       <use style="stroke:#000000;stroke-width:0.8;" x="391.774963" xlink:href="#mf196316974" y="569.664"/>
      </g>
     </g>
     <g id="text_6">
      <!-- jun -->
      <g transform="translate(384.0484 584.262438)scale(0.1 -0.1)">
       <defs>
        <path d="M 9.421875 54.6875 
L 18.40625 54.6875 
L 18.40625 -0.984375 
Q 18.40625 -11.421875 14.421875 -16.109375 
Q 10.453125 -20.796875 1.609375 -20.796875 
L -1.8125 -20.796875 
L -1.8125 -13.1875 
L 0.59375 -13.1875 
Q 5.71875 -13.1875 7.5625 -10.8125 
Q 9.421875 -8.453125 9.421875 -0.984375 
z
M 9.421875 75.984375 
L 18.40625 75.984375 
L 18.40625 64.59375 
L 9.421875 64.59375 
z
" id="DejaVuSans-106"/>
        <path d="M 8.5 21.578125 
L 8.5 54.6875 
L 17.484375 54.6875 
L 17.484375 21.921875 
Q 17.484375 14.15625 20.5 10.265625 
Q 23.53125 6.390625 29.59375 6.390625 
Q 36.859375 6.390625 41.078125 11.03125 
Q 45.3125 15.671875 45.3125 23.6875 
L 45.3125 54.6875 
L 54.296875 54.6875 
L 54.296875 0 
L 45.3125 0 
L 45.3125 8.40625 
Q 42.046875 3.421875 37.71875 1 
Q 33.40625 -1.421875 27.6875 -1.421875 
Q 18.265625 -1.421875 13.375 4.4375 
Q 8.5 10.296875 8.5 21.578125 
z
M 31.109375 56 
z
" id="DejaVuSans-117"/>
       </defs>
       <use xlink:href="#DejaVuSans-106"/>
       <use x="27.783203" xlink:href="#DejaVuSans-117"/>
       <use x="91.162109" xlink:href="#DejaVuSans-110"/>
      </g>
     </g>
    </g>
    <g id="xtick_7">
     <g id="line2d_7">
      <g>
       <use style="stroke:#000000;stroke-width:0.8;" x="438.644593" xlink:href="#mf196316974" y="569.664"/>
      </g>
     </g>
     <g id="text_7">
      <!-- jul -->
      <g transform="translate(432.697718 584.262438)scale(0.1 -0.1)">
       <defs>
        <path d="M 9.421875 75.984375 
L 18.40625 75.984375 
L 18.40625 0 
L 9.421875 0 
z
" id="DejaVuSans-108"/>
       </defs>
       <use xlink:href="#DejaVuSans-106"/>
       <use x="27.783203" xlink:href="#DejaVuSans-117"/>
       <use x="91.162109" xlink:href="#DejaVuSans-108"/>
      </g>
     </g>
    </g>
    <g id="xtick_8">
     <g id="line2d_8">
      <g>
       <use style="stroke:#000000;stroke-width:0.8;" x="487.076543" xlink:href="#mf196316974" y="569.664"/>
      </g>
     </g>
     <g id="text_8">
      <!-- ago -->
      <g transform="translate(477.778887 584.262438)scale(0.1 -0.1)">
       <defs>
        <path d="M 45.40625 27.984375 
Q 45.40625 37.75 41.375 43.109375 
Q 37.359375 48.484375 30.078125 48.484375 
Q 22.859375 48.484375 18.828125 43.109375 
Q 14.796875 37.75 14.796875 27.984375 
Q 14.796875 18.265625 18.828125 12.890625 
Q 22.859375 7.515625 30.078125 7.515625 
Q 37.359375 7.515625 41.375 12.890625 
Q 45.40625 18.265625 45.40625 27.984375 
z
M 54.390625 6.78125 
Q 54.390625 -7.171875 48.1875 -13.984375 
Q 42 -20.796875 29.203125 -20.796875 
Q 24.46875 -20.796875 20.265625 -20.09375 
Q 16.0625 -19.390625 12.109375 -17.921875 
L 12.109375 -9.1875 
Q 16.0625 -11.328125 19.921875 -12.34375 
Q 23.78125 -13.375 27.78125 -13.375 
Q 36.625 -13.375 41.015625 -8.765625 
Q 45.40625 -4.15625 45.40625 5.171875 
L 45.40625 9.625 
Q 42.625 4.78125 38.28125 2.390625 
Q 33.9375 0 27.875 0 
Q 17.828125 0 11.671875 7.65625 
Q 5.515625 15.328125 5.515625 27.984375 
Q 5.515625 40.671875 11.671875 48.328125 
Q 17.828125 56 27.875 56 
Q 33.9375 56 38.28125 53.609375 
Q 42.625 51.21875 45.40625 46.390625 
L 45.40625 54.6875 
L 54.390625 54.6875 
z
" id="DejaVuSans-103"/>
        <path d="M 30.609375 48.390625 
Q 23.390625 48.390625 19.1875 42.75 
Q 14.984375 37.109375 14.984375 27.296875 
Q 14.984375 17.484375 19.15625 11.84375 
Q 23.34375 6.203125 30.609375 6.203125 
Q 37.796875 6.203125 41.984375 11.859375 
Q 46.1875 17.53125 46.1875 27.296875 
Q 46.1875 37.015625 41.984375 42.703125 
Q 37.796875 48.390625 30.609375 48.390625 
z
M 30.609375 56 
Q 42.328125 56 49.015625 48.375 
Q 55.71875 40.765625 55.71875 27.296875 
Q 55.71875 13.875 49.015625 6.21875 
Q 42.328125 -1.421875 30.609375 -1.421875 
Q 18.84375 -1.421875 12.171875 6.21875 
Q 5.515625 13.875 5.515625 27.296875 
Q 5.515625 40.765625 12.171875 48.375 
Q 18.84375 56 30.609375 56 
z
" id="DejaVuSans-111"/>
       </defs>
       <use xlink:href="#DejaVuSans-97"/>
       <use x="61.279297" xlink:href="#DejaVuSans-103"/>
       <use x="124.755859" xlink:href="#DejaVuSans-111"/>
      </g>
     </g>
    </g>
    <g id="xtick_9">
     <g id="line2d_9">
      <g>
       <use style="stroke:#000000;stroke-width:0.8;" x="535.508494" xlink:href="#mf196316974" y="569.664"/>
      </g>
     </g>
     <g id="text_9">
      <!-- sep -->
      <g transform="translate(526.653025 584.262438)scale(0.1 -0.1)">
       <defs>
        <path d="M 44.28125 53.078125 
L 44.28125 44.578125 
Q 40.484375 46.53125 36.375 47.5 
Q 32.28125 48.484375 27.875 48.484375 
Q 21.1875 48.484375 17.84375 46.4375 
Q 14.5 44.390625 14.5 40.28125 
Q 14.5 37.15625 16.890625 35.375 
Q 19.28125 33.59375 26.515625 31.984375 
L 29.59375 31.296875 
Q 39.15625 29.25 43.1875 25.515625 
Q 47.21875 21.78125 47.21875 15.09375 
Q 47.21875 7.46875 41.1875 3.015625 
Q 35.15625 -1.421875 24.609375 -1.421875 
Q 20.21875 -1.421875 15.453125 -0.5625 
Q 10.6875 0.296875 5.421875 2 
L 5.421875 11.28125 
Q 10.40625 8.6875 15.234375 7.390625 
Q 20.0625 6.109375 24.8125 6.109375 
Q 31.15625 6.109375 34.5625 8.28125 
Q 37.984375 10.453125 37.984375 14.40625 
Q 37.984375 18.0625 35.515625 20.015625 
Q 33.0625 21.96875 24.703125 23.78125 
L 21.578125 24.515625 
Q 13.234375 26.265625 9.515625 29.90625 
Q 5.8125 33.546875 5.8125 39.890625 
Q 5.8125 47.609375 11.28125 51.796875 
Q 16.75 56 26.8125 56 
Q 31.78125 56 36.171875 55.265625 
Q 40.578125 54.546875 44.28125 53.078125 
z
" id="DejaVuSans-115"/>
        <path d="M 18.109375 8.203125 
L 18.109375 -20.796875 
L 9.078125 -20.796875 
L 9.078125 54.6875 
L 18.109375 54.6875 
L 18.109375 46.390625 
Q 20.953125 51.265625 25.265625 53.625 
Q 29.59375 56 35.59375 56 
Q 45.5625 56 51.78125 48.09375 
Q 58.015625 40.1875 58.015625 27.296875 
Q 58.015625 14.40625 51.78125 6.484375 
Q 45.5625 -1.421875 35.59375 -1.421875 
Q 29.59375 -1.421875 25.265625 0.953125 
Q 20.953125 3.328125 18.109375 8.203125 
z
M 48.6875 27.296875 
Q 48.6875 37.203125 44.609375 42.84375 
Q 40.53125 48.484375 33.40625 48.484375 
Q 26.265625 48.484375 22.1875 42.84375 
Q 18.109375 37.203125 18.109375 27.296875 
Q 18.109375 17.390625 22.1875 11.75 
Q 26.265625 6.109375 33.40625 6.109375 
Q 40.53125 6.109375 44.609375 11.75 
Q 48.6875 17.390625 48.6875 27.296875 
z
" id="DejaVuSans-112"/>
       </defs>
       <use xlink:href="#DejaVuSans-115"/>
       <use x="52.099609" xlink:href="#DejaVuSans-101"/>
       <use x="113.623047" xlink:href="#DejaVuSans-112"/>
      </g>
     </g>
    </g>
    <g id="xtick_10">
     <g id="line2d_10">
      <g>
       <use style="stroke:#000000;stroke-width:0.8;" x="582.378123" xlink:href="#mf196316974" y="569.664"/>
      </g>
     </g>
     <g id="text_10">
      <!-- oct -->
      <g transform="translate(574.609373 584.262438)scale(0.1 -0.1)">
       <defs>
        <path d="M 48.78125 52.59375 
L 48.78125 44.1875 
Q 44.96875 46.296875 41.140625 47.34375 
Q 37.3125 48.390625 33.40625 48.390625 
Q 24.65625 48.390625 19.8125 42.84375 
Q 14.984375 37.3125 14.984375 27.296875 
Q 14.984375 17.28125 19.8125 11.734375 
Q 24.65625 6.203125 33.40625 6.203125 
Q 37.3125 6.203125 41.140625 7.25 
Q 44.96875 8.296875 48.78125 10.40625 
L 48.78125 2.09375 
Q 45.015625 0.34375 40.984375 -0.53125 
Q 36.96875 -1.421875 32.421875 -1.421875 
Q 20.0625 -1.421875 12.78125 6.34375 
Q 5.515625 14.109375 5.515625 27.296875 
Q 5.515625 40.671875 12.859375 48.328125 
Q 20.21875 56 33.015625 56 
Q 37.15625 56 41.109375 55.140625 
Q 45.0625 54.296875 48.78125 52.59375 
z
" id="DejaVuSans-99"/>
        <path d="M 18.3125 70.21875 
L 18.3125 54.6875 
L 36.8125 54.6875 
L 36.8125 47.703125 
L 18.3125 47.703125 
L 18.3125 18.015625 
Q 18.3125 11.328125 20.140625 9.421875 
Q 21.96875 7.515625 27.59375 7.515625 
L 36.8125 7.515625 
L 36.8125 0 
L 27.59375 0 
Q 17.1875 0 13.234375 3.875 
Q 9.28125 7.765625 9.28125 18.015625 
L 9.28125 47.703125 
L 2.6875 47.703125 
L 2.6875 54.6875 
L 9.28125 54.6875 
L 9.28125 70.21875 
z
" id="DejaVuSans-116"/>
       </defs>
       <use xlink:href="#DejaVuSans-111"/>
       <use x="61.181641" xlink:href="#DejaVuSans-99"/>
       <use x="116.162109" xlink:href="#DejaVuSans-116"/>
      </g>
     </g>
    </g>
    <g id="xtick_11">
     <g id="line2d_11">
      <g>
       <use style="stroke:#000000;stroke-width:0.8;" x="630.810074" xlink:href="#mf196316974" y="569.664"/>
      </g>
     </g>
     <g id="text_11">
      <!-- nov -->
      <g transform="translate(621.622574 584.262438)scale(0.1 -0.1)">
       <defs>
        <path d="M 2.984375 54.6875 
L 12.5 54.6875 
L 29.59375 8.796875 
L 46.6875 54.6875 
L 56.203125 54.6875 
L 35.6875 0 
L 23.484375 0 
z
" id="DejaVuSans-118"/>
       </defs>
       <use xlink:href="#DejaVuSans-110"/>
       <use x="63.378906" xlink:href="#DejaVuSans-111"/>
       <use x="124.560547" xlink:href="#DejaVuSans-118"/>
      </g>
     </g>
    </g>
    <g id="xtick_12">
     <g id="line2d_12">
      <g>
       <use style="stroke:#000000;stroke-width:0.8;" x="677.679704" xlink:href="#mf196316974" y="569.664"/>
      </g>
     </g>
     <g id="text_12">
      <!-- dic -->
      <g transform="translate(670.367204 584.262438)scale(0.1 -0.1)">
       <defs>
        <path d="M 45.40625 46.390625 
L 45.40625 75.984375 
L 54.390625 75.984375 
L 54.390625 0 
L 45.40625 0 
L 45.40625 8.203125 
Q 42.578125 3.328125 38.25 0.953125 
Q 33.9375 -1.421875 27.875 -1.421875 
Q 17.96875 -1.421875 11.734375 6.484375 
Q 5.515625 14.40625 5.515625 27.296875 
Q 5.515625 40.1875 11.734375 48.09375 
Q 17.96875 56 27.875 56 
Q 33.9375 56 38.25 53.625 
Q 42.578125 51.265625 45.40625 46.390625 
z
M 14.796875 27.296875 
Q 14.796875 17.390625 18.875 11.75 
Q 22.953125 6.109375 30.078125 6.109375 
Q 37.203125 6.109375 41.296875 11.75 
Q 45.40625 17.390625 45.40625 27.296875 
Q 45.40625 37.203125 41.296875 42.84375 
Q 37.203125 48.484375 30.078125 48.484375 
Q 22.953125 48.484375 18.875 42.84375 
Q 14.796875 37.203125 14.796875 27.296875 
z
" id="DejaVuSans-100"/>
        <path d="M 9.421875 54.6875 
L 18.40625 54.6875 
L 18.40625 0 
L 9.421875 0 
z
M 9.421875 75.984375 
L 18.40625 75.984375 
L 18.40625 64.59375 
L 9.421875 64.59375 
z
" id="DejaVuSans-105"/>
       </defs>
       <use xlink:href="#DejaVuSans-100"/>
       <use x="63.476562" xlink:href="#DejaVuSans-105"/>
       <use x="91.259766" xlink:href="#DejaVuSans-99"/>
      </g>
     </g>
    </g>
    <g id="xtick_13">
     <g id="line2d_13">
      <g>
       <use style="stroke:#000000;stroke-width:0.8;" x="726.111654" xlink:href="#mf196316974" y="569.664"/>
      </g>
     </g>
     <g id="text_13">
      <!-- ene -->
      <g transform="translate(716.789779 584.262438)scale(0.1 -0.1)">
       <use xlink:href="#DejaVuSans-101"/>
       <use x="61.523438" xlink:href="#DejaVuSans-110"/>
       <use x="124.902344" xlink:href="#DejaVuSans-101"/>
      </g>
     </g>
    </g>
    <g id="xtick_14">
     <g id="line2d_14">
      <g>
       <use style="stroke:#000000;stroke-width:0.8;" x="774.543605" xlink:href="#mf196316974" y="569.664"/>
      </g>
     </g>
     <g id="text_14">
      <!-- feb -->
      <g transform="translate(766.532667 584.262438)scale(0.1 -0.1)">
       <use xlink:href="#DejaVuSans-102"/>
       <use x="35.205078" xlink:href="#DejaVuSans-101"/>
       <use x="96.728516" xlink:href="#DejaVuSans-98"/>
      </g>
     </g>
    </g>
    <g id="xtick_15">
     <g id="line2d_15">
      <g>
       <use style="stroke:#000000;stroke-width:0.8;" x="818.288593" xlink:href="#mf196316974" y="569.664"/>
      </g>
     </g>
     <g id="text_15">
      <!-- mar -->
      <g transform="translate(808.298749 584.262438)scale(0.1 -0.1)">
       <use xlink:href="#DejaVuSans-109"/>
       <use x="97.412109" xlink:href="#DejaVuSans-97"/>
       <use x="158.691406" xlink:href="#DejaVuSans-114"/>
      </g>
     </g>
    </g>
    <g id="xtick_16">
     <g id="line2d_16">
      <g>
       <use style="stroke:#000000;stroke-width:0.8;" x="866.720543" xlink:href="#mf196316974" y="569.664"/>
      </g>
     </g>
     <g id="text_16">
      <!-- abr -->
      <g transform="translate(858.426793 584.262438)scale(0.1 -0.1)">
       <use xlink:href="#DejaVuSans-97"/>
       <use x="61.279297" xlink:href="#DejaVuSans-98"/>
       <use x="124.755859" xlink:href="#DejaVuSans-114"/>
      </g>
     </g>
    </g>
    <g id="xtick_17">
     <g id="line2d_17">
      <g>
       <use style="stroke:#000000;stroke-width:0.8;" x="913.590173" xlink:href="#mf196316974" y="569.664"/>
      </g>
     </g>
     <g id="text_17">
      <!-- may -->
      <g transform="translate(902.696423 584.262438)scale(0.1 -0.1)">
       <use xlink:href="#DejaVuSans-109"/>
       <use x="97.412109" xlink:href="#DejaVuSans-97"/>
       <use x="158.691406" xlink:href="#DejaVuSans-121"/>
      </g>
     </g>
    </g>
    <g id="xtick_18">
     <g id="line2d_18">
      <g>
       <use style="stroke:#000000;stroke-width:0.8;" x="962.022123" xlink:href="#mf196316974" y="569.664"/>
      </g>
     </g>
     <g id="text_18">
      <!-- jun -->
      <g transform="translate(954.295561 584.262438)scale(0.1 -0.1)">
       <use xlink:href="#DejaVuSans-106"/>
       <use x="27.783203" xlink:href="#DejaVuSans-117"/>
       <use x="91.162109" xlink:href="#DejaVuSans-110"/>
      </g>
     </g>
    </g>
    <g id="xtick_19">
     <g id="line2d_19">
      <g>
       <use style="stroke:#000000;stroke-width:0.8;" x="1008.891753" xlink:href="#mf196316974" y="569.664"/>
      </g>
     </g>
     <g id="text_19">
      <!-- jul -->
      <g transform="translate(1002.944878 584.262438)scale(0.1 -0.1)">
       <use xlink:href="#DejaVuSans-106"/>
       <use x="27.783203" xlink:href="#DejaVuSans-117"/>
       <use x="91.162109" xlink:href="#DejaVuSans-108"/>
      </g>
     </g>
    </g>
    <g id="xtick_20">
     <g id="line2d_20">
      <g>
       <use style="stroke:#000000;stroke-width:0.8;" x="1057.323704" xlink:href="#mf196316974" y="569.664"/>
      </g>
     </g>
     <g id="text_20">
      <!-- ago -->
      <g transform="translate(1048.026047 584.262438)scale(0.1 -0.1)">
       <use xlink:href="#DejaVuSans-97"/>
       <use x="61.279297" xlink:href="#DejaVuSans-103"/>
       <use x="124.755859" xlink:href="#DejaVuSans-111"/>
      </g>
     </g>
    </g>
    <g id="xtick_21">
     <g id="line2d_21">
      <g>
       <use style="stroke:#000000;stroke-width:0.8;" x="1105.755654" xlink:href="#mf196316974" y="569.664"/>
      </g>
     </g>
     <g id="text_21">
      <!-- sep -->
      <g transform="translate(1096.900186 584.262438)scale(0.1 -0.1)">
       <use xlink:href="#DejaVuSans-115"/>
       <use x="52.099609" xlink:href="#DejaVuSans-101"/>
       <use x="113.623047" xlink:href="#DejaVuSans-112"/>
      </g>
     </g>
    </g>
    <g id="xtick_22">
     <g id="line2d_22">
      <g>
       <use style="stroke:#000000;stroke-width:0.8;" x="1152.625284" xlink:href="#mf196316974" y="569.664"/>
      </g>
     </g>
     <g id="text_22">
      <!-- oct -->
      <g transform="translate(1144.856534 584.262438)scale(0.1 -0.1)">
       <use xlink:href="#DejaVuSans-111"/>
       <use x="61.181641" xlink:href="#DejaVuSans-99"/>
       <use x="116.162109" xlink:href="#DejaVuSans-116"/>
      </g>
     </g>
    </g>
    <g id="xtick_23">
     <g id="line2d_23">
      <g>
       <use style="stroke:#000000;stroke-width:0.8;" x="1201.057235" xlink:href="#mf196316974" y="569.664"/>
      </g>
     </g>
     <g id="text_23">
      <!-- nov -->
      <g transform="translate(1191.869735 584.262438)scale(0.1 -0.1)">
       <use xlink:href="#DejaVuSans-110"/>
       <use x="63.378906" xlink:href="#DejaVuSans-111"/>
       <use x="124.560547" xlink:href="#DejaVuSans-118"/>
      </g>
     </g>
    </g>
    <g id="xtick_24">
     <g id="line2d_24">
      <g>
       <use style="stroke:#000000;stroke-width:0.8;" x="1247.926864" xlink:href="#mf196316974" y="569.664"/>
      </g>
     </g>
     <g id="text_24">
      <!-- dic -->
      <g transform="translate(1240.614364 584.262438)scale(0.1 -0.1)">
       <use xlink:href="#DejaVuSans-100"/>
       <use x="63.476562" xlink:href="#DejaVuSans-105"/>
       <use x="91.259766" xlink:href="#DejaVuSans-99"/>
      </g>
     </g>
    </g>
    <g id="xtick_25">
     <g id="line2d_25">
      <defs>
       <path d="M 0 0 
L 0 2 
" id="md933ba1a55" style="stroke:#000000;stroke-width:0.6;"/>
      </defs>
      <g>
       <use style="stroke:#000000;stroke-width:0.6;" x="133.992" xlink:href="#md933ba1a55" y="569.664"/>
      </g>
     </g>
    </g>
    <g id="xtick_26">
     <g id="line2d_26">
      <g>
       <use style="stroke:#000000;stroke-width:0.6;" x="182.423951" xlink:href="#md933ba1a55" y="569.664"/>
      </g>
     </g>
    </g>
    <g id="xtick_27">
     <g id="line2d_27">
      <g>
       <use style="stroke:#000000;stroke-width:0.6;" x="226.168938" xlink:href="#md933ba1a55" y="569.664"/>
      </g>
     </g>
    </g>
    <g id="xtick_28">
     <g id="line2d_28">
      <g>
       <use style="stroke:#000000;stroke-width:0.6;" x="274.600889" xlink:href="#md933ba1a55" y="569.664"/>
      </g>
     </g>
    </g>
    <g id="xtick_29">
     <g id="line2d_29">
      <g>
       <use style="stroke:#000000;stroke-width:0.6;" x="321.470519" xlink:href="#md933ba1a55" y="569.664"/>
      </g>
     </g>
    </g>
    <g id="xtick_30">
     <g id="line2d_30">
      <g>
       <use style="stroke:#000000;stroke-width:0.6;" x="369.902469" xlink:href="#md933ba1a55" y="569.664"/>
      </g>
     </g>
    </g>
    <g id="xtick_31">
     <g id="line2d_31">
      <g>
       <use style="stroke:#000000;stroke-width:0.6;" x="416.772099" xlink:href="#md933ba1a55" y="569.664"/>
      </g>
     </g>
    </g>
    <g id="xtick_32">
     <g id="line2d_32">
      <g>
       <use style="stroke:#000000;stroke-width:0.6;" x="465.204049" xlink:href="#md933ba1a55" y="569.664"/>
      </g>
     </g>
    </g>
    <g id="xtick_33">
     <g id="line2d_33">
      <g>
       <use style="stroke:#000000;stroke-width:0.6;" x="513.636" xlink:href="#md933ba1a55" y="569.664"/>
      </g>
     </g>
    </g>
    <g id="xtick_34">
     <g id="line2d_34">
      <g>
       <use style="stroke:#000000;stroke-width:0.6;" x="560.50563" xlink:href="#md933ba1a55" y="569.664"/>
      </g>
     </g>
    </g>
    <g id="xtick_35">
     <g id="line2d_35">
      <g>
       <use style="stroke:#000000;stroke-width:0.6;" x="608.93758" xlink:href="#md933ba1a55" y="569.664"/>
      </g>
     </g>
    </g>
    <g id="xtick_36">
     <g id="line2d_36">
      <g>
       <use style="stroke:#000000;stroke-width:0.6;" x="655.80721" xlink:href="#md933ba1a55" y="569.664"/>
      </g>
     </g>
    </g>
    <g id="xtick_37">
     <g id="line2d_37">
      <g>
       <use style="stroke:#000000;stroke-width:0.6;" x="704.23916" xlink:href="#md933ba1a55" y="569.664"/>
      </g>
     </g>
    </g>
    <g id="xtick_38">
     <g id="line2d_38">
      <g>
       <use style="stroke:#000000;stroke-width:0.6;" x="752.671111" xlink:href="#md933ba1a55" y="569.664"/>
      </g>
     </g>
    </g>
    <g id="xtick_39">
     <g id="line2d_39">
      <g>
       <use style="stroke:#000000;stroke-width:0.6;" x="796.416099" xlink:href="#md933ba1a55" y="569.664"/>
      </g>
     </g>
    </g>
    <g id="xtick_40">
     <g id="line2d_40">
      <g>
       <use style="stroke:#000000;stroke-width:0.6;" x="844.848049" xlink:href="#md933ba1a55" y="569.664"/>
      </g>
     </g>
    </g>
    <g id="xtick_41">
     <g id="line2d_41">
      <g>
       <use style="stroke:#000000;stroke-width:0.6;" x="891.717679" xlink:href="#md933ba1a55" y="569.664"/>
      </g>
     </g>
    </g>
    <g id="xtick_42">
     <g id="line2d_42">
      <g>
       <use style="stroke:#000000;stroke-width:0.6;" x="940.14963" xlink:href="#md933ba1a55" y="569.664"/>
      </g>
     </g>
    </g>
    <g id="xtick_43">
     <g id="line2d_43">
      <g>
       <use style="stroke:#000000;stroke-width:0.6;" x="987.019259" xlink:href="#md933ba1a55" y="569.664"/>
      </g>
     </g>
    </g>
    <g id="xtick_44">
     <g id="line2d_44">
      <g>
       <use style="stroke:#000000;stroke-width:0.6;" x="1035.45121" xlink:href="#md933ba1a55" y="569.664"/>
      </g>
     </g>
    </g>
    <g id="xtick_45">
     <g id="line2d_45">
      <g>
       <use style="stroke:#000000;stroke-width:0.6;" x="1083.88316" xlink:href="#md933ba1a55" y="569.664"/>
      </g>
     </g>
    </g>
    <g id="xtick_46">
     <g id="line2d_46">
      <g>
       <use style="stroke:#000000;stroke-width:0.6;" x="1130.75279" xlink:href="#md933ba1a55" y="569.664"/>
      </g>
     </g>
    </g>
    <g id="xtick_47">
     <g id="line2d_47">
      <g>
       <use style="stroke:#000000;stroke-width:0.6;" x="1179.184741" xlink:href="#md933ba1a55" y="569.664"/>
      </g>
     </g>
    </g>
    <g id="xtick_48">
     <g id="line2d_48">
      <g>
       <use style="stroke:#000000;stroke-width:0.6;" x="1226.05437" xlink:href="#md933ba1a55" y="569.664"/>
      </g>
     </g>
    </g>
    <g id="text_25">
     <!-- Tiempo -->
     <g transform="translate(677.603938 600.979938)scale(0.14 -0.14)">
      <defs>
       <path d="M -0.296875 72.90625 
L 61.375 72.90625 
L 61.375 64.59375 
L 35.5 64.59375 
L 35.5 0 
L 25.59375 0 
L 25.59375 64.59375 
L -0.296875 64.59375 
z
" id="DejaVuSans-84"/>
      </defs>
      <use xlink:href="#DejaVuSans-84"/>
      <use x="57.958984" xlink:href="#DejaVuSans-105"/>
      <use x="85.742188" xlink:href="#DejaVuSans-101"/>
      <use x="147.265625" xlink:href="#DejaVuSans-109"/>
      <use x="244.677734" xlink:href="#DejaVuSans-112"/>
      <use x="308.154297" xlink:href="#DejaVuSans-111"/>
     </g>
    </g>
   </g>
   <g id="matplotlib.axis_2">
    <g id="ytick_1">
     <g id="line2d_49">
      <defs>
       <path d="M 0 0 
L -3.5 0 
" id="med34744399" style="stroke:#000000;stroke-width:0.8;"/>
      </defs>
      <g>
       <use style="stroke:#000000;stroke-width:0.8;" x="133.992" xlink:href="#med34744399" y="564.428118"/>
      </g>
     </g>
     <g id="text_26">
      <!-- 0 -->
      <g transform="translate(120.6295 568.227336)scale(0.1 -0.1)">
       <defs>
        <path d="M 31.78125 66.40625 
Q 24.171875 66.40625 20.328125 58.90625 
Q 16.5 51.421875 16.5 36.375 
Q 16.5 21.390625 20.328125 13.890625 
Q 24.171875 6.390625 31.78125 6.390625 
Q 39.453125 6.390625 43.28125 13.890625 
Q 47.125 21.390625 47.125 36.375 
Q 47.125 51.421875 43.28125 58.90625 
Q 39.453125 66.40625 31.78125 66.40625 
z
M 31.78125 74.21875 
Q 44.046875 74.21875 50.515625 64.515625 
Q 56.984375 54.828125 56.984375 36.375 
Q 56.984375 17.96875 50.515625 8.265625 
Q 44.046875 -1.421875 31.78125 -1.421875 
Q 19.53125 -1.421875 13.0625 8.265625 
Q 6.59375 17.96875 6.59375 36.375 
Q 6.59375 54.828125 13.0625 64.515625 
Q 19.53125 74.21875 31.78125 74.21875 
z
" id="DejaVuSans-48"/>
       </defs>
       <use xlink:href="#DejaVuSans-48"/>
      </g>
     </g>
    </g>
    <g id="ytick_2">
     <g id="line2d_50">
      <g>
       <use style="stroke:#000000;stroke-width:0.8;" x="133.992" xlink:href="#med34744399" y="469.230257"/>
      </g>
     </g>
     <g id="text_27">
      <!-- 10 -->
      <g transform="translate(114.267 473.029475)scale(0.1 -0.1)">
       <defs>
        <path d="M 12.40625 8.296875 
L 28.515625 8.296875 
L 28.515625 63.921875 
L 10.984375 60.40625 
L 10.984375 69.390625 
L 28.421875 72.90625 
L 38.28125 72.90625 
L 38.28125 8.296875 
L 54.390625 8.296875 
L 54.390625 0 
L 12.40625 0 
z
" id="DejaVuSans-49"/>
       </defs>
       <use xlink:href="#DejaVuSans-49"/>
       <use x="63.623047" xlink:href="#DejaVuSans-48"/>
      </g>
     </g>
    </g>
    <g id="ytick_3">
     <g id="line2d_51">
      <g>
       <use style="stroke:#000000;stroke-width:0.8;" x="133.992" xlink:href="#med34744399" y="374.032396"/>
      </g>
     </g>
     <g id="text_28">
      <!-- 20 -->
      <g transform="translate(114.267 377.831614)scale(0.1 -0.1)">
       <defs>
        <path d="M 19.1875 8.296875 
L 53.609375 8.296875 
L 53.609375 0 
L 7.328125 0 
L 7.328125 8.296875 
Q 12.9375 14.109375 22.625 23.890625 
Q 32.328125 33.6875 34.8125 36.53125 
Q 39.546875 41.84375 41.421875 45.53125 
Q 43.3125 49.21875 43.3125 52.78125 
Q 43.3125 58.59375 39.234375 62.25 
Q 35.15625 65.921875 28.609375 65.921875 
Q 23.96875 65.921875 18.8125 64.3125 
Q 13.671875 62.703125 7.8125 59.421875 
L 7.8125 69.390625 
Q 13.765625 71.78125 18.9375 73 
Q 24.125 74.21875 28.421875 74.21875 
Q 39.75 74.21875 46.484375 68.546875 
Q 53.21875 62.890625 53.21875 53.421875 
Q 53.21875 48.921875 51.53125 44.890625 
Q 49.859375 40.875 45.40625 35.40625 
Q 44.1875 33.984375 37.640625 27.21875 
Q 31.109375 20.453125 19.1875 8.296875 
z
" id="DejaVuSans-50"/>
       </defs>
       <use xlink:href="#DejaVuSans-50"/>
       <use x="63.623047" xlink:href="#DejaVuSans-48"/>
      </g>
     </g>
    </g>
    <g id="ytick_4">
     <g id="line2d_52">
      <g>
       <use style="stroke:#000000;stroke-width:0.8;" x="133.992" xlink:href="#med34744399" y="278.834535"/>
      </g>
     </g>
     <g id="text_29">
      <!-- 30 -->
      <g transform="translate(114.267 282.633754)scale(0.1 -0.1)">
       <defs>
        <path d="M 40.578125 39.3125 
Q 47.65625 37.796875 51.625 33 
Q 55.609375 28.21875 55.609375 21.1875 
Q 55.609375 10.40625 48.1875 4.484375 
Q 40.765625 -1.421875 27.09375 -1.421875 
Q 22.515625 -1.421875 17.65625 -0.515625 
Q 12.796875 0.390625 7.625 2.203125 
L 7.625 11.71875 
Q 11.71875 9.328125 16.59375 8.109375 
Q 21.484375 6.890625 26.8125 6.890625 
Q 36.078125 6.890625 40.9375 10.546875 
Q 45.796875 14.203125 45.796875 21.1875 
Q 45.796875 27.640625 41.28125 31.265625 
Q 36.765625 34.90625 28.71875 34.90625 
L 20.21875 34.90625 
L 20.21875 43.015625 
L 29.109375 43.015625 
Q 36.375 43.015625 40.234375 45.921875 
Q 44.09375 48.828125 44.09375 54.296875 
Q 44.09375 59.90625 40.109375 62.90625 
Q 36.140625 65.921875 28.71875 65.921875 
Q 24.65625 65.921875 20.015625 65.03125 
Q 15.375 64.15625 9.8125 62.3125 
L 9.8125 71.09375 
Q 15.4375 72.65625 20.34375 73.4375 
Q 25.25 74.21875 29.59375 74.21875 
Q 40.828125 74.21875 47.359375 69.109375 
Q 53.90625 64.015625 53.90625 55.328125 
Q 53.90625 49.265625 50.4375 45.09375 
Q 46.96875 40.921875 40.578125 39.3125 
z
" id="DejaVuSans-51"/>
       </defs>
       <use xlink:href="#DejaVuSans-51"/>
       <use x="63.623047" xlink:href="#DejaVuSans-48"/>
      </g>
     </g>
    </g>
    <g id="ytick_5">
     <g id="line2d_53">
      <g>
       <use style="stroke:#000000;stroke-width:0.8;" x="133.992" xlink:href="#med34744399" y="183.636674"/>
      </g>
     </g>
     <g id="text_30">
      <!-- 40 -->
      <g transform="translate(114.267 187.435893)scale(0.1 -0.1)">
       <defs>
        <path d="M 37.796875 64.3125 
L 12.890625 25.390625 
L 37.796875 25.390625 
z
M 35.203125 72.90625 
L 47.609375 72.90625 
L 47.609375 25.390625 
L 58.015625 25.390625 
L 58.015625 17.1875 
L 47.609375 17.1875 
L 47.609375 0 
L 37.796875 0 
L 37.796875 17.1875 
L 4.890625 17.1875 
L 4.890625 26.703125 
z
" id="DejaVuSans-52"/>
       </defs>
       <use xlink:href="#DejaVuSans-52"/>
       <use x="63.623047" xlink:href="#DejaVuSans-48"/>
      </g>
     </g>
    </g>
    <g id="ytick_6">
     <g id="line2d_54">
      <g>
       <use style="stroke:#000000;stroke-width:0.8;" x="133.992" xlink:href="#med34744399" y="88.438813"/>
      </g>
     </g>
     <g id="text_31">
      <!-- 50 -->
      <g transform="translate(114.267 92.238032)scale(0.1 -0.1)">
       <defs>
        <path d="M 10.796875 72.90625 
L 49.515625 72.90625 
L 49.515625 64.59375 
L 19.828125 64.59375 
L 19.828125 46.734375 
Q 21.96875 47.46875 24.109375 47.828125 
Q 26.265625 48.1875 28.421875 48.1875 
Q 40.625 48.1875 47.75 41.5 
Q 54.890625 34.8125 54.890625 23.390625 
Q 54.890625 11.625 47.5625 5.09375 
Q 40.234375 -1.421875 26.90625 -1.421875 
Q 22.3125 -1.421875 17.546875 -0.640625 
Q 12.796875 0.140625 7.71875 1.703125 
L 7.71875 11.625 
Q 12.109375 9.234375 16.796875 8.0625 
Q 21.484375 6.890625 26.703125 6.890625 
Q 35.15625 6.890625 40.078125 11.328125 
Q 45.015625 15.765625 45.015625 23.390625 
Q 45.015625 31 40.078125 35.4375 
Q 35.15625 39.890625 26.703125 39.890625 
Q 22.75 39.890625 18.8125 39.015625 
Q 14.890625 38.140625 10.796875 36.28125 
z
" id="DejaVuSans-53"/>
       </defs>
       <use xlink:href="#DejaVuSans-53"/>
       <use x="63.623047" xlink:href="#DejaVuSans-48"/>
      </g>
     </g>
    </g>
    <g id="text_32">
     <!-- Número de Graves -->
     <g transform="translate(101.355438 368.324625)rotate(-90)scale(0.14 -0.14)">
      <defs>
       <path d="M 9.8125 72.90625 
L 23.09375 72.90625 
L 55.421875 11.921875 
L 55.421875 72.90625 
L 64.984375 72.90625 
L 64.984375 0 
L 51.703125 0 
L 19.390625 60.984375 
L 19.390625 0 
L 9.8125 0 
z
" id="DejaVuSans-78"/>
       <path d="M 8.5 21.578125 
L 8.5 54.6875 
L 17.484375 54.6875 
L 17.484375 21.921875 
Q 17.484375 14.15625 20.5 10.265625 
Q 23.53125 6.390625 29.59375 6.390625 
Q 36.859375 6.390625 41.078125 11.03125 
Q 45.3125 15.671875 45.3125 23.6875 
L 45.3125 54.6875 
L 54.296875 54.6875 
L 54.296875 0 
L 45.3125 0 
L 45.3125 8.40625 
Q 42.046875 3.421875 37.71875 1 
Q 33.40625 -1.421875 27.6875 -1.421875 
Q 18.265625 -1.421875 13.375 4.4375 
Q 8.5 10.296875 8.5 21.578125 
z
M 31.109375 56 
z
M 37.78125 79.984375 
L 47.5 79.984375 
L 31.59375 61.625 
L 24.109375 61.625 
z
" id="DejaVuSans-250"/>
       <path id="DejaVuSans-32"/>
       <path d="M 59.515625 10.40625 
L 59.515625 29.984375 
L 43.40625 29.984375 
L 43.40625 38.09375 
L 69.28125 38.09375 
L 69.28125 6.78125 
Q 63.578125 2.734375 56.6875 0.65625 
Q 49.8125 -1.421875 42 -1.421875 
Q 24.90625 -1.421875 15.25 8.5625 
Q 5.609375 18.5625 5.609375 36.375 
Q 5.609375 54.25 15.25 64.234375 
Q 24.90625 74.21875 42 74.21875 
Q 49.125 74.21875 55.546875 72.453125 
Q 61.96875 70.703125 67.390625 67.28125 
L 67.390625 56.78125 
Q 61.921875 61.421875 55.765625 63.765625 
Q 49.609375 66.109375 42.828125 66.109375 
Q 29.4375 66.109375 22.71875 58.640625 
Q 16.015625 51.171875 16.015625 36.375 
Q 16.015625 21.625 22.71875 14.15625 
Q 29.4375 6.6875 42.828125 6.6875 
Q 48.046875 6.6875 52.140625 7.59375 
Q 56.25 8.5 59.515625 10.40625 
z
" id="DejaVuSans-71"/>
      </defs>
      <use xlink:href="#DejaVuSans-78"/>
      <use x="74.804688" xlink:href="#DejaVuSans-250"/>
      <use x="138.183594" xlink:href="#DejaVuSans-109"/>
      <use x="235.595703" xlink:href="#DejaVuSans-101"/>
      <use x="297.119141" xlink:href="#DejaVuSans-114"/>
      <use x="335.982422" xlink:href="#DejaVuSans-111"/>
      <use x="397.164062" xlink:href="#DejaVuSans-32"/>
      <use x="428.951172" xlink:href="#DejaVuSans-100"/>
      <use x="492.427734" xlink:href="#DejaVuSans-101"/>
      <use x="553.951172" xlink:href="#DejaVuSans-32"/>
      <use x="585.738281" xlink:href="#DejaVuSans-71"/>
      <use x="663.228516" xlink:href="#DejaVuSans-114"/>
      <use x="704.341797" xlink:href="#DejaVuSans-97"/>
      <use x="765.621094" xlink:href="#DejaVuSans-118"/>
      <use x="824.800781" xlink:href="#DejaVuSans-101"/>
      <use x="886.324219" xlink:href="#DejaVuSans-115"/>
     </g>
    </g>
   </g>
   <g id="line2d_55">
    <path clip-path="url(#p5abef19d42)" d="M 133.992 259.794963 
L 135.554321 412.11154 
L 137.116642 297.874107 
L 138.678963 288.354321 
L 140.241284 383.552182 
L 141.803605 459.710471 
L 143.365926 326.433465 
L 144.928247 297.874107 
L 146.490568 412.11154 
L 148.052889 412.11154 
L 149.61521 402.591754 
L 151.177531 412.11154 
L 152.739852 345.473037 
L 154.302173 383.552182 
L 155.864494 364.51261 
L 157.426815 459.710471 
L 158.989136 421.631326 
L 160.551457 326.433465 
L 162.113778 278.834535 
L 163.676099 288.354321 
L 165.23842 288.354321 
L 166.800741 383.552182 
L 168.363062 431.151112 
L 169.925383 345.473037 
L 171.487704 345.473037 
L 173.050025 364.51261 
L 174.612346 412.11154 
L 176.174667 278.834535 
L 177.736988 326.433465 
L 179.299309 431.151112 
L 180.86163 402.591754 
L 182.423951 364.51261 
L 183.986272 459.710471 
L 185.548593 421.631326 
L 187.110914 297.874107 
L 188.673235 345.473037 
L 190.235556 269.314749 
L 191.797877 297.874107 
L 193.360198 345.473037 
L 194.922519 345.473037 
L 196.48484 240.75539 
L 198.04716 278.834535 
L 199.609481 354.992824 
L 201.171802 393.071968 
L 202.734123 364.51261 
L 204.296444 316.913679 
L 205.858765 345.473037 
L 207.421086 269.314749 
L 208.983407 307.393893 
L 210.545728 278.834535 
L 212.108049 335.953251 
L 213.67037 383.552182 
L 215.232691 307.393893 
L 216.795012 431.151112 
L 218.357333 316.913679 
L 219.919654 393.071968 
L 221.481975 307.393893 
L 224.606617 478.750043 
L 226.168938 316.913679 
L 227.731259 335.953251 
L 229.29358 250.275176 
L 230.855901 240.75539 
L 232.418222 440.670898 
L 233.980543 374.032396 
L 235.542864 335.953251 
L 237.105185 393.071968 
L 238.667506 459.710471 
L 240.229827 335.953251 
L 241.792148 383.552182 
L 243.354469 421.631326 
L 244.91679 402.591754 
L 246.479111 326.433465 
L 248.041432 354.992824 
L 249.603753 354.992824 
L 251.166074 326.433465 
L 252.728395 374.032396 
L 254.290716 354.992824 
L 255.853037 412.11154 
L 257.415358 288.354321 
L 258.977679 316.913679 
L 260.54 374.032396 
L 262.102321 364.51261 
L 263.664642 374.032396 
L 265.226963 459.710471 
L 266.789284 450.190684 
L 268.351605 374.032396 
L 269.913926 412.11154 
L 271.476247 383.552182 
L 273.038568 431.151112 
L 274.600889 412.11154 
L 276.16321 383.552182 
L 277.725531 307.393893 
L 279.287852 326.433465 
L 280.850173 393.071968 
L 282.412494 402.591754 
L 283.974815 345.473037 
L 285.537136 250.275176 
L 287.099457 345.473037 
L 288.661778 431.151112 
L 290.224099 431.151112 
L 291.78642 393.071968 
L 293.348741 393.071968 
L 294.911062 354.992824 
L 296.473383 393.071968 
L 298.035704 412.11154 
L 299.598025 316.913679 
L 301.160346 345.473037 
L 302.722667 393.071968 
L 304.284988 250.275176 
L 305.847309 421.631326 
L 307.40963 354.992824 
L 308.971951 450.190684 
L 312.096593 335.953251 
L 313.658914 383.552182 
L 315.221235 421.631326 
L 316.783556 354.992824 
L 318.345877 354.992824 
L 319.908198 421.631326 
L 321.470519 221.715818 
L 323.03284 240.75539 
L 324.59516 402.591754 
L 326.157481 212.196032 
L 327.719802 326.433465 
L 329.282123 412.11154 
L 330.844444 383.552182 
L 332.406765 307.393893 
L 333.969086 374.032396 
L 335.531407 374.032396 
L 337.093728 393.071968 
L 338.656049 288.354321 
L 340.21837 240.75539 
L 341.780691 402.591754 
L 343.343012 393.071968 
L 344.905333 374.032396 
L 346.467654 374.032396 
L 348.029975 412.11154 
L 351.154617 354.992824 
L 352.716938 307.393893 
L 354.279259 402.591754 
L 355.84158 402.591754 
L 357.403901 307.393893 
L 358.966222 374.032396 
L 360.528543 307.393893 
L 362.090864 345.473037 
L 363.653185 297.874107 
L 365.215506 326.433465 
L 366.777827 478.750043 
L 368.340148 478.750043 
L 369.902469 269.314749 
L 371.46479 297.874107 
L 373.027111 374.032396 
L 374.589432 326.433465 
L 376.151753 431.151112 
L 377.714074 316.913679 
L 379.276395 469.230257 
L 380.838716 345.473037 
L 382.401037 354.992824 
L 383.963358 307.393893 
L 385.525679 326.433465 
L 387.088 402.591754 
L 388.650321 383.552182 
L 390.212642 383.552182 
L 391.774963 335.953251 
L 393.337284 412.11154 
L 394.899605 393.071968 
L 396.461926 497.789615 
L 398.024247 421.631326 
L 399.586568 288.354321 
L 401.148889 412.11154 
L 402.71121 393.071968 
L 404.273531 335.953251 
L 405.835852 402.591754 
L 407.398173 412.11154 
L 408.960494 383.552182 
L 410.522815 450.190684 
L 412.085136 431.151112 
L 413.647457 450.190684 
L 415.209778 450.190684 
L 416.772099 383.552182 
L 418.33442 393.071968 
L 419.896741 469.230257 
L 421.459062 364.51261 
L 423.021383 383.552182 
L 424.583704 431.151112 
L 426.146025 374.032396 
L 427.708346 345.473037 
L 429.270667 383.552182 
L 430.832988 354.992824 
L 432.395309 402.591754 
L 433.95763 345.473037 
L 435.519951 354.992824 
L 437.082272 431.151112 
L 438.644593 364.51261 
L 440.206914 421.631326 
L 441.769235 459.710471 
L 443.331556 421.631326 
L 444.893877 402.591754 
L 446.456198 393.071968 
L 448.018519 354.992824 
L 449.58084 364.51261 
L 451.14316 345.473037 
L 452.705481 354.992824 
L 454.267802 393.071968 
L 455.830123 488.269829 
L 457.392444 297.874107 
L 458.954765 431.151112 
L 460.517086 402.591754 
L 462.079407 421.631326 
L 463.641728 383.552182 
L 465.204049 488.269829 
L 466.76637 393.071968 
L 468.328691 335.953251 
L 469.891012 412.11154 
L 471.453333 431.151112 
L 473.015654 383.552182 
L 474.577975 364.51261 
L 476.140296 402.591754 
L 477.702617 383.552182 
L 479.264938 402.591754 
L 480.827259 335.953251 
L 482.38958 335.953251 
L 483.951901 421.631326 
L 485.514222 383.552182 
L 487.076543 431.151112 
L 488.638864 459.710471 
L 490.201185 383.552182 
L 491.763506 478.750043 
L 493.325827 393.071968 
L 494.888148 402.591754 
L 496.450469 374.032396 
L 498.01279 431.151112 
L 499.575111 364.51261 
L 501.137432 421.631326 
L 502.699753 412.11154 
L 504.262074 440.670898 
L 505.824395 393.071968 
L 507.386716 354.992824 
L 508.949037 431.151112 
L 510.511358 450.190684 
L 512.073679 545.388545 
L 513.636 421.631326 
L 515.198321 326.433465 
L 516.760642 393.071968 
L 518.322963 393.071968 
L 519.885284 402.591754 
L 521.447605 393.071968 
L 523.009926 478.750043 
L 524.572247 497.789615 
L 526.134568 450.190684 
L 527.696889 354.992824 
L 529.25921 478.750043 
L 530.821531 478.750043 
L 532.383852 393.071968 
L 533.946173 402.591754 
L 535.508494 383.552182 
L 538.633136 383.552182 
L 540.195457 393.071968 
L 541.757778 421.631326 
L 543.320099 497.789615 
L 544.88242 421.631326 
L 546.444741 402.591754 
L 548.007062 431.151112 
L 549.569383 412.11154 
L 551.131704 431.151112 
L 552.694025 488.269829 
L 554.256346 393.071968 
L 555.818667 402.591754 
L 557.380988 450.190684 
L 558.943309 383.552182 
L 560.50563 374.032396 
L 562.067951 383.552182 
L 563.630272 469.230257 
L 565.192593 393.071968 
L 566.754914 374.032396 
L 568.317235 412.11154 
L 569.879556 345.473037 
L 571.441877 383.552182 
L 573.004198 459.710471 
L 574.566519 450.190684 
L 576.12884 450.190684 
L 577.69116 364.51261 
L 579.253481 326.433465 
L 580.815802 316.913679 
L 582.378123 412.11154 
L 583.940444 450.190684 
L 585.502765 440.670898 
L 587.065086 450.190684 
L 588.627407 307.393893 
L 590.189728 259.794963 
L 591.752049 393.071968 
L 593.31437 478.750043 
L 594.876691 345.473037 
L 596.439012 431.151112 
L 598.001333 354.992824 
L 599.563654 431.151112 
L 601.125975 326.433465 
L 602.688296 345.473037 
L 604.250617 383.552182 
L 605.812938 459.710471 
L 607.375259 440.670898 
L 608.93758 431.151112 
L 610.499901 412.11154 
L 612.062222 440.670898 
L 613.624543 402.591754 
L 615.186864 412.11154 
L 616.749185 335.953251 
L 618.311506 440.670898 
L 619.873827 412.11154 
L 621.436148 345.473037 
L 622.998469 335.953251 
L 624.56079 469.230257 
L 626.123111 393.071968 
L 627.685432 459.710471 
L 629.247753 488.269829 
L 630.810074 431.151112 
L 632.372395 345.473037 
L 633.934716 412.11154 
L 635.497037 374.032396 
L 637.059358 431.151112 
L 638.621679 374.032396 
L 640.184 383.552182 
L 641.746321 383.552182 
L 643.308642 440.670898 
L 644.870963 383.552182 
L 646.433284 335.953251 
L 647.995605 345.473037 
L 649.557926 412.11154 
L 651.120247 412.11154 
L 652.682568 459.710471 
L 654.244889 383.552182 
L 655.80721 412.11154 
L 657.369531 421.631326 
L 658.931852 402.591754 
L 660.494173 374.032396 
L 662.056494 297.874107 
L 663.618815 383.552182 
L 665.181136 374.032396 
L 666.743457 250.275176 
L 668.305778 345.473037 
L 669.868099 383.552182 
L 671.43042 354.992824 
L 672.992741 335.953251 
L 674.555062 335.953251 
L 676.117383 364.51261 
L 677.679704 335.953251 
L 679.242025 326.433465 
L 680.804346 374.032396 
L 682.366667 431.151112 
L 683.928988 383.552182 
L 685.491309 440.670898 
L 687.05363 335.953251 
L 688.615951 354.992824 
L 690.178272 354.992824 
L 691.740593 459.710471 
L 693.302914 402.591754 
L 694.865235 412.11154 
L 696.427556 231.235604 
L 697.989877 412.11154 
L 699.552198 383.552182 
L 701.114519 393.071968 
L 702.67684 488.269829 
L 704.23916 231.235604 
L 705.801481 383.552182 
L 707.363802 383.552182 
L 708.926123 440.670898 
L 710.488444 402.591754 
L 712.050765 383.552182 
L 713.613086 431.151112 
L 715.175407 393.071968 
L 716.737728 364.51261 
L 718.300049 393.071968 
L 719.86237 364.51261 
L 721.424691 393.071968 
L 722.987012 326.433465 
L 724.549333 269.314749 
L 726.111654 374.032396 
L 727.673975 316.913679 
L 729.236296 440.670898 
L 730.798617 316.913679 
L 732.360938 307.393893 
L 733.923259 402.591754 
L 735.48558 393.071968 
L 737.047901 421.631326 
L 740.172543 440.670898 
L 741.734864 326.433465 
L 743.297185 316.913679 
L 744.859506 374.032396 
L 746.421827 412.11154 
L 747.984148 345.473037 
L 749.546469 469.230257 
L 751.10879 393.071968 
L 752.671111 307.393893 
L 754.233432 278.834535 
L 755.795753 145.557529 
L 757.358074 431.151112 
L 758.920395 412.11154 
L 760.482716 345.473037 
L 762.045037 393.071968 
L 765.169679 316.913679 
L 766.732 345.473037 
L 768.294321 412.11154 
L 769.856642 402.591754 
L 771.418963 383.552182 
L 772.981284 335.953251 
L 774.543605 402.591754 
L 776.105926 288.354321 
L 777.668247 307.393893 
L 779.230568 421.631326 
L 780.792889 431.151112 
L 782.35521 326.433465 
L 783.917531 440.670898 
L 785.479852 431.151112 
L 787.042173 402.591754 
L 788.604494 431.151112 
L 790.166815 374.032396 
L 791.729136 374.032396 
L 793.291457 393.071968 
L 794.853778 431.151112 
L 796.416099 326.433465 
L 797.97842 354.992824 
L 799.540741 374.032396 
L 801.103062 364.51261 
L 802.665383 402.591754 
L 804.227704 297.874107 
L 805.790025 383.552182 
L 807.352346 402.591754 
L 808.914667 450.190684 
L 810.476988 316.913679 
L 812.039309 402.591754 
L 813.60163 364.51261 
L 815.163951 421.631326 
L 816.726272 345.473037 
L 818.288593 335.953251 
L 819.850914 402.591754 
L 821.413235 316.913679 
L 822.975556 326.433465 
L 824.537877 193.15646 
L 826.100198 402.591754 
L 827.662519 374.032396 
L 829.22484 316.913679 
L 830.78716 345.473037 
L 832.349481 269.314749 
L 833.911802 288.354321 
L 835.474123 316.913679 
L 837.036444 354.992824 
L 838.598765 440.670898 
L 840.161086 421.631326 
L 841.723407 421.631326 
L 843.285728 440.670898 
L 844.848049 345.473037 
L 846.41037 421.631326 
L 847.972691 383.552182 
L 849.535012 469.230257 
L 851.097333 307.393893 
L 852.659654 354.992824 
L 854.221975 288.354321 
L 857.346617 364.51261 
L 858.908938 440.670898 
L 860.471259 412.11154 
L 862.03358 402.591754 
L 863.595901 421.631326 
L 865.158222 393.071968 
L 866.720543 307.393893 
L 869.845185 459.710471 
L 871.407506 240.75539 
L 872.969827 402.591754 
L 874.532148 459.710471 
L 876.094469 345.473037 
L 877.65679 364.51261 
L 879.219111 326.433465 
L 880.781432 383.552182 
L 882.343753 478.750043 
L 883.906074 345.473037 
L 887.030716 440.670898 
L 888.593037 364.51261 
L 890.155358 431.151112 
L 891.717679 297.874107 
L 893.28 421.631326 
L 894.842321 345.473037 
L 896.404642 354.992824 
L 897.966963 393.071968 
L 899.529284 421.631326 
L 901.091605 383.552182 
L 904.216247 402.591754 
L 905.778568 307.393893 
L 908.90321 326.433465 
L 910.465531 402.591754 
L 912.027852 393.071968 
L 913.590173 335.953251 
L 915.152494 459.710471 
L 916.714815 326.433465 
L 918.277136 345.473037 
L 919.839457 374.032396 
L 921.401778 440.670898 
L 922.964099 383.552182 
L 924.52642 364.51261 
L 926.088741 431.151112 
L 927.651062 316.913679 
L 929.213383 364.51261 
L 930.775704 364.51261 
L 932.338025 469.230257 
L 933.900346 412.11154 
L 935.462667 307.393893 
L 937.024988 412.11154 
L 938.587309 393.071968 
L 940.14963 335.953251 
L 941.711951 402.591754 
L 943.274272 402.591754 
L 944.836593 383.552182 
L 946.398914 345.473037 
L 947.961235 402.591754 
L 949.523556 383.552182 
L 951.085877 421.631326 
L 952.648198 412.11154 
L 954.210519 421.631326 
L 955.77284 335.953251 
L 957.33516 269.314749 
L 958.897481 478.750043 
L 960.459802 450.190684 
L 962.022123 278.834535 
L 963.584444 440.670898 
L 965.146765 364.51261 
L 966.709086 335.953251 
L 968.271407 374.032396 
L 969.833728 402.591754 
L 971.396049 364.51261 
L 972.95837 374.032396 
L 976.083012 412.11154 
L 977.645333 297.874107 
L 980.769975 469.230257 
L 982.332296 345.473037 
L 983.894617 354.992824 
L 985.456938 450.190684 
L 987.019259 354.992824 
L 988.58158 440.670898 
L 990.143901 412.11154 
L 991.706222 364.51261 
L 993.268543 383.552182 
L 994.830864 335.953251 
L 996.393185 421.631326 
L 997.955506 459.710471 
L 999.517827 393.071968 
L 1001.080148 364.51261 
L 1002.642469 374.032396 
L 1004.20479 374.032396 
L 1005.767111 393.071968 
L 1007.329432 269.314749 
L 1008.891753 326.433465 
L 1010.454074 402.591754 
L 1013.578716 383.552182 
L 1015.141037 402.591754 
L 1016.703358 250.275176 
L 1018.265679 393.071968 
L 1019.828 412.11154 
L 1021.390321 421.631326 
L 1022.952642 374.032396 
L 1024.514963 431.151112 
L 1026.077284 459.710471 
L 1027.639605 402.591754 
L 1029.201926 374.032396 
L 1030.764247 221.715818 
L 1032.326568 354.992824 
L 1033.888889 412.11154 
L 1037.013531 354.992824 
L 1038.575852 431.151112 
L 1040.138173 326.433465 
L 1041.700494 383.552182 
L 1043.262815 421.631326 
L 1044.825136 364.51261 
L 1046.387457 421.631326 
L 1047.949778 393.071968 
L 1049.512099 402.591754 
L 1051.07442 383.552182 
L 1052.636741 431.151112 
L 1054.199062 374.032396 
L 1055.761383 393.071968 
L 1057.323704 440.670898 
L 1058.886025 345.473037 
L 1060.448346 345.473037 
L 1062.010667 288.354321 
L 1063.572988 383.552182 
L 1065.135309 450.190684 
L 1066.69763 383.552182 
L 1068.259951 497.789615 
L 1069.822272 326.433465 
L 1071.384593 288.354321 
L 1072.946914 431.151112 
L 1074.509235 440.670898 
L 1076.071556 459.710471 
L 1077.633877 402.591754 
L 1079.196198 335.953251 
L 1080.758519 421.631326 
L 1082.32084 354.992824 
L 1083.88316 393.071968 
L 1085.445481 307.393893 
L 1087.007802 412.11154 
L 1088.570123 497.789615 
L 1090.132444 440.670898 
L 1091.694765 402.591754 
L 1093.257086 354.992824 
L 1094.819407 354.992824 
L 1096.381728 393.071968 
L 1097.944049 402.591754 
L 1099.50637 364.51261 
L 1101.068691 402.591754 
L 1102.631012 450.190684 
L 1104.193333 297.874107 
L 1105.755654 402.591754 
L 1107.317975 469.230257 
L 1108.880296 326.433465 
L 1110.442617 288.354321 
L 1112.004938 345.473037 
L 1113.567259 440.670898 
L 1115.12958 421.631326 
L 1116.691901 450.190684 
L 1118.254222 431.151112 
L 1119.816543 469.230257 
L 1121.378864 393.071968 
L 1122.941185 450.190684 
L 1124.503506 402.591754 
L 1126.065827 459.710471 
L 1127.628148 412.11154 
L 1129.190469 459.710471 
L 1130.75279 288.354321 
L 1132.315111 421.631326 
L 1133.877432 393.071968 
L 1135.439753 326.433465 
L 1137.002074 383.552182 
L 1138.564395 393.071968 
L 1140.126716 393.071968 
L 1141.689037 374.032396 
L 1143.251358 450.190684 
L 1144.813679 374.032396 
L 1146.376 374.032396 
L 1147.938321 440.670898 
L 1149.500642 478.750043 
L 1151.062963 440.670898 
L 1152.625284 412.11154 
L 1154.187605 469.230257 
L 1155.749926 393.071968 
L 1157.312247 478.750043 
L 1158.874568 469.230257 
L 1160.436889 450.190684 
L 1161.99921 393.071968 
L 1165.123852 450.190684 
L 1166.686173 459.710471 
L 1168.248494 459.710471 
L 1169.810815 421.631326 
L 1171.373136 354.992824 
L 1172.935457 431.151112 
L 1174.497778 478.750043 
L 1176.060099 345.473037 
L 1177.62242 383.552182 
L 1179.184741 393.071968 
L 1180.747062 431.151112 
L 1182.309383 412.11154 
L 1183.871704 383.552182 
L 1185.434025 431.151112 
L 1186.996346 412.11154 
L 1188.558667 412.11154 
L 1190.120988 383.552182 
L 1191.683309 326.433465 
L 1193.24563 307.393893 
L 1194.807951 345.473037 
L 1196.370272 431.151112 
L 1197.932593 374.032396 
L 1199.494914 345.473037 
L 1201.057235 345.473037 
L 1202.619556 316.913679 
L 1204.181877 402.591754 
L 1205.744198 316.913679 
L 1207.306519 421.631326 
L 1208.86884 402.591754 
L 1210.43116 364.51261 
L 1211.993481 393.071968 
L 1213.555802 354.992824 
L 1215.118123 469.230257 
L 1216.680444 412.11154 
L 1218.242765 459.710471 
L 1219.805086 364.51261 
L 1221.367407 469.230257 
L 1222.929728 354.992824 
L 1224.492049 326.433465 
L 1226.05437 240.75539 
L 1227.616691 374.032396 
L 1229.179012 316.913679 
L 1230.741333 431.151112 
L 1232.303654 269.314749 
L 1233.865975 364.51261 
L 1235.428296 250.275176 
L 1236.990617 326.433465 
L 1238.552938 335.953251 
L 1240.115259 412.11154 
L 1241.67758 412.11154 
L 1243.239901 383.552182 
L 1244.802222 250.275176 
L 1246.364543 450.190684 
L 1247.926864 412.11154 
L 1249.489185 364.51261 
L 1251.051506 402.591754 
L 1255.738469 402.591754 
L 1257.30079 354.992824 
L 1258.863111 240.75539 
L 1260.425432 316.913679 
L 1261.987753 374.032396 
L 1263.550074 364.51261 
L 1265.112395 393.071968 
L 1266.674716 326.433465 
L 1268.237037 393.071968 
L 1269.799358 326.433465 
L 1271.361679 402.591754 
L 1272.924 383.552182 
L 1272.924 383.552182 
" style="fill:none;stroke:#ff8c00;stroke-linecap:square;stroke-width:1.5;"/>
   </g>
   <g id="line2d_56">
    <path clip-path="url(#p5abef19d42)" d="M 133.992 412.11154 
L 135.554321 431.151112 
L 137.116642 402.591754 
L 138.678963 421.631326 
L 143.365926 450.190684 
L 146.490568 412.11154 
L 148.052889 440.670898 
L 149.61521 421.631326 
L 151.177531 412.11154 
L 152.739852 412.11154 
L 154.302173 440.670898 
L 155.864494 431.151112 
L 157.426815 450.190684 
L 158.989136 431.151112 
L 160.551457 459.710471 
L 163.676099 440.670898 
L 165.23842 469.230257 
L 169.925383 497.789615 
L 171.487704 488.269829 
L 173.050025 488.269829 
L 174.612346 469.230257 
L 177.736988 450.190684 
L 179.299309 469.230257 
L 180.86163 459.710471 
L 182.423951 421.631326 
L 183.986272 421.631326 
L 185.548593 393.071968 
L 187.110914 383.552182 
L 188.673235 459.710471 
L 190.235556 431.151112 
L 191.797877 450.190684 
L 193.360198 440.670898 
L 194.922519 412.11154 
L 196.48484 393.071968 
L 198.04716 383.552182 
L 199.609481 354.992824 
L 201.171802 383.552182 
L 202.734123 354.992824 
L 204.296444 383.552182 
L 205.858765 335.953251 
L 207.421086 412.11154 
L 208.983407 440.670898 
L 210.545728 478.750043 
L 212.108049 488.269829 
L 213.67037 478.750043 
L 215.232691 421.631326 
L 216.795012 393.071968 
L 218.357333 354.992824 
L 219.919654 335.953251 
L 221.481975 278.834535 
L 223.044296 307.393893 
L 224.606617 412.11154 
L 226.168938 383.552182 
L 227.731259 374.032396 
L 229.29358 431.151112 
L 230.855901 459.710471 
L 232.418222 478.750043 
L 233.980543 440.670898 
L 235.542864 431.151112 
L 237.105185 402.591754 
L 238.667506 240.75539 
L 240.229827 278.834535 
L 241.792148 307.393893 
L 243.354469 307.393893 
L 244.91679 374.032396 
L 246.479111 354.992824 
L 248.041432 364.51261 
L 249.603753 345.473037 
L 251.166074 269.314749 
L 252.728395 307.393893 
L 254.290716 259.794963 
L 255.853037 269.314749 
L 257.415358 250.275176 
L 258.977679 297.874107 
L 260.54 316.913679 
L 262.102321 421.631326 
L 265.226963 345.473037 
L 266.789284 374.032396 
L 268.351605 231.235604 
L 269.913926 278.834535 
L 271.476247 354.992824 
L 273.038568 402.591754 
L 274.600889 354.992824 
L 276.16321 326.433465 
L 277.725531 345.473037 
L 279.287852 269.314749 
L 280.850173 364.51261 
L 282.412494 316.913679 
L 283.974815 316.913679 
L 285.537136 345.473037 
L 288.661778 326.433465 
L 290.224099 335.953251 
L 291.78642 383.552182 
L 293.348741 345.473037 
L 294.911062 345.473037 
L 296.473383 269.314749 
L 298.035704 174.116888 
L 299.598025 259.794963 
L 301.160346 364.51261 
L 302.722667 412.11154 
L 304.284988 345.473037 
L 305.847309 326.433465 
L 307.40963 335.953251 
L 308.971951 326.433465 
L 310.534272 297.874107 
L 312.096593 221.715818 
L 313.658914 354.992824 
L 315.221235 354.992824 
L 318.345877 393.071968 
L 319.908198 402.591754 
L 321.470519 393.071968 
L 323.03284 335.953251 
L 324.59516 402.591754 
L 326.157481 374.032396 
L 327.719802 383.552182 
L 329.282123 374.032396 
L 330.844444 307.393893 
L 332.406765 335.953251 
L 333.969086 354.992824 
L 335.531407 393.071968 
L 337.093728 316.913679 
L 338.656049 307.393893 
L 340.21837 269.314749 
L 341.780691 326.433465 
L 343.343012 374.032396 
L 344.905333 383.552182 
L 348.029975 383.552182 
L 349.592296 354.992824 
L 351.154617 354.992824 
L 352.716938 393.071968 
L 354.279259 326.433465 
L 355.84158 393.071968 
L 357.403901 402.591754 
L 358.966222 354.992824 
L 360.528543 364.51261 
L 362.090864 383.552182 
L 363.653185 345.473037 
L 365.215506 288.354321 
L 366.777827 412.11154 
L 368.340148 421.631326 
L 369.902469 250.275176 
L 371.46479 183.636674 
L 373.027111 307.393893 
L 374.589432 354.992824 
L 376.151753 297.874107 
L 377.714074 116.998171 
L 379.276395 354.992824 
L 380.838716 364.51261 
L 382.401037 316.913679 
L 383.963358 288.354321 
L 385.525679 221.715818 
L 387.088 354.992824 
L 388.650321 393.071968 
L 390.212642 345.473037 
L 391.774963 288.354321 
L 393.337284 374.032396 
L 394.899605 440.670898 
L 396.461926 450.190684 
L 398.024247 421.631326 
L 399.586568 364.51261 
L 401.148889 421.631326 
L 402.71121 412.11154 
L 404.273531 412.11154 
L 405.835852 383.552182 
L 407.398173 374.032396 
L 408.960494 335.953251 
L 410.522815 364.51261 
L 412.085136 402.591754 
L 413.647457 354.992824 
L 415.209778 402.591754 
L 416.772099 326.433465 
L 418.33442 440.670898 
L 419.896741 421.631326 
L 421.459062 345.473037 
L 423.021383 345.473037 
L 424.583704 402.591754 
L 426.146025 402.591754 
L 427.708346 421.631326 
L 429.270667 374.032396 
L 430.832988 412.11154 
L 432.395309 412.11154 
L 433.95763 374.032396 
L 435.519951 269.314749 
L 437.082272 326.433465 
L 438.644593 316.913679 
L 440.206914 393.071968 
L 441.769235 393.071968 
L 443.331556 402.591754 
L 444.893877 364.51261 
L 446.456198 364.51261 
L 448.018519 326.433465 
L 449.58084 402.591754 
L 451.14316 421.631326 
L 452.705481 412.11154 
L 454.267802 345.473037 
L 455.830123 478.750043 
L 457.392444 364.51261 
L 458.954765 297.874107 
L 460.517086 335.953251 
L 462.079407 326.433465 
L 463.641728 335.953251 
L 465.204049 374.032396 
L 466.76637 345.473037 
L 468.328691 374.032396 
L 469.891012 393.071968 
L 473.015654 393.071968 
L 474.577975 374.032396 
L 476.140296 345.473037 
L 477.702617 393.071968 
L 479.264938 364.51261 
L 480.827259 345.473037 
L 482.38958 421.631326 
L 483.951901 316.913679 
L 485.514222 402.591754 
L 487.076543 421.631326 
L 490.201185 402.591754 
L 491.763506 383.552182 
L 493.325827 421.631326 
L 494.888148 402.591754 
L 496.450469 354.992824 
L 498.01279 345.473037 
L 499.575111 221.715818 
L 501.137432 316.913679 
L 502.699753 307.393893 
L 504.262074 383.552182 
L 505.824395 326.433465 
L 507.386716 354.992824 
L 508.949037 364.51261 
L 510.511358 335.953251 
L 512.073679 345.473037 
L 513.636 326.433465 
L 515.198321 335.953251 
L 516.760642 412.11154 
L 518.322963 402.591754 
L 519.885284 421.631326 
L 521.447605 402.591754 
L 523.009926 374.032396 
L 524.572247 374.032396 
L 526.134568 345.473037 
L 527.696889 393.071968 
L 529.25921 383.552182 
L 530.821531 393.071968 
L 532.383852 345.473037 
L 533.946173 307.393893 
L 535.508494 288.354321 
L 537.070815 297.874107 
L 538.633136 269.314749 
L 540.195457 221.715818 
L 541.757778 383.552182 
L 543.320099 412.11154 
L 544.88242 393.071968 
L 549.569383 450.190684 
L 551.131704 431.151112 
L 552.694025 459.710471 
L 554.256346 431.151112 
L 555.818667 421.631326 
L 558.943309 421.631326 
L 560.50563 297.874107 
L 562.067951 316.913679 
L 563.630272 393.071968 
L 565.192593 421.631326 
L 566.754914 412.11154 
L 568.317235 335.953251 
L 569.879556 297.874107 
L 571.441877 326.433465 
L 573.004198 393.071968 
L 574.566519 393.071968 
L 577.69116 335.953251 
L 579.253481 316.913679 
L 580.815802 259.794963 
L 582.378123 374.032396 
L 585.502765 354.992824 
L 587.065086 459.710471 
L 588.627407 459.710471 
L 590.189728 412.11154 
L 591.752049 431.151112 
L 593.31437 412.11154 
L 594.876691 345.473037 
L 596.439012 402.591754 
L 598.001333 374.032396 
L 599.563654 364.51261 
L 601.125975 421.631326 
L 602.688296 469.230257 
L 604.250617 450.190684 
L 605.812938 440.670898 
L 607.375259 459.710471 
L 608.93758 421.631326 
L 610.499901 440.670898 
L 612.062222 402.591754 
L 613.624543 402.591754 
L 615.186864 412.11154 
L 616.749185 431.151112 
L 618.311506 354.992824 
L 619.873827 364.51261 
L 621.436148 297.874107 
L 622.998469 374.032396 
L 624.56079 421.631326 
L 626.123111 374.032396 
L 627.685432 335.953251 
L 629.247753 421.631326 
L 630.810074 459.710471 
L 632.372395 374.032396 
L 633.934716 431.151112 
L 635.497037 412.11154 
L 637.059358 383.552182 
L 638.621679 393.071968 
L 640.184 459.710471 
L 641.746321 393.071968 
L 643.308642 364.51261 
L 644.870963 354.992824 
L 647.995605 412.11154 
L 649.557926 459.710471 
L 651.120247 412.11154 
L 652.682568 393.071968 
L 654.244889 402.591754 
L 655.80721 335.953251 
L 657.369531 421.631326 
L 658.931852 393.071968 
L 660.494173 316.913679 
L 662.056494 316.913679 
L 663.618815 202.676246 
L 665.181136 269.314749 
L 666.743457 316.913679 
L 668.305778 326.433465 
L 669.868099 354.992824 
L 671.43042 354.992824 
L 672.992741 383.552182 
L 674.555062 345.473037 
L 676.117383 364.51261 
L 677.679704 345.473037 
L 680.804346 364.51261 
L 682.366667 383.552182 
L 683.928988 364.51261 
L 687.05363 269.314749 
L 688.615951 345.473037 
L 690.178272 335.953251 
L 691.740593 383.552182 
L 693.302914 374.032396 
L 696.427556 374.032396 
L 697.989877 402.591754 
L 699.552198 402.591754 
L 701.114519 440.670898 
L 702.67684 450.190684 
L 704.23916 250.275176 
L 705.801481 383.552182 
L 707.363802 402.591754 
L 708.926123 450.190684 
L 710.488444 383.552182 
L 712.050765 335.953251 
L 713.613086 383.552182 
L 715.175407 345.473037 
L 716.737728 374.032396 
L 718.300049 383.552182 
L 719.86237 402.591754 
L 721.424691 431.151112 
L 722.987012 412.11154 
L 724.549333 440.670898 
L 726.111654 364.51261 
L 727.673975 402.591754 
L 729.236296 431.151112 
L 730.798617 383.552182 
L 732.360938 402.591754 
L 733.923259 440.670898 
L 735.48558 402.591754 
L 737.047901 412.11154 
L 738.610222 431.151112 
L 740.172543 402.591754 
L 741.734864 354.992824 
L 743.297185 364.51261 
L 744.859506 402.591754 
L 746.421827 383.552182 
L 747.984148 450.190684 
L 749.546469 459.710471 
L 751.10879 421.631326 
L 752.671111 316.913679 
L 754.233432 240.75539 
L 755.795753 183.636674 
L 757.358074 297.874107 
L 758.920395 278.834535 
L 760.482716 383.552182 
L 762.045037 393.071968 
L 763.607358 345.473037 
L 765.169679 307.393893 
L 766.732 278.834535 
L 768.294321 364.51261 
L 769.856642 374.032396 
L 771.418963 412.11154 
L 772.981284 364.51261 
L 774.543605 374.032396 
L 776.105926 354.992824 
L 777.668247 288.354321 
L 779.230568 335.953251 
L 780.792889 326.433465 
L 782.35521 326.433465 
L 783.917531 335.953251 
L 785.479852 335.953251 
L 787.042173 374.032396 
L 788.604494 354.992824 
L 790.166815 145.557529 
L 791.729136 374.032396 
L 793.291457 364.51261 
L 794.853778 440.670898 
L 796.416099 383.552182 
L 797.97842 316.913679 
L 799.540741 326.433465 
L 801.103062 288.354321 
L 802.665383 297.874107 
L 804.227704 297.874107 
L 805.790025 288.354321 
L 807.352346 335.953251 
L 810.476988 354.992824 
L 812.039309 297.874107 
L 813.60163 345.473037 
L 815.163951 335.953251 
L 816.726272 335.953251 
L 818.288593 288.354321 
L 819.850914 288.354321 
L 821.413235 326.433465 
L 822.975556 288.354321 
L 824.537877 259.794963 
L 826.100198 240.75539 
L 827.662519 326.433465 
L 829.22484 326.433465 
L 830.78716 259.794963 
L 832.349481 374.032396 
L 833.911802 393.071968 
L 835.474123 250.275176 
L 837.036444 297.874107 
L 838.598765 326.433465 
L 840.161086 297.874107 
L 841.723407 307.393893 
L 843.285728 383.552182 
L 844.848049 59.879455 
L 846.41037 364.51261 
L 847.972691 326.433465 
L 849.535012 383.552182 
L 851.097333 269.314749 
L 852.659654 231.235604 
L 854.221975 269.314749 
L 855.784296 240.75539 
L 857.346617 364.51261 
L 858.908938 354.992824 
L 860.471259 393.071968 
L 862.03358 402.591754 
L 866.720543 345.473037 
L 868.282864 383.552182 
L 869.845185 326.433465 
L 871.407506 316.913679 
L 872.969827 364.51261 
L 874.532148 440.670898 
L 876.094469 374.032396 
L 877.65679 374.032396 
L 879.219111 421.631326 
L 880.781432 374.032396 
L 882.343753 412.11154 
L 883.906074 402.591754 
L 885.468395 364.51261 
L 887.030716 364.51261 
L 888.593037 297.874107 
L 890.155358 174.116888 
L 891.717679 345.473037 
L 893.28 316.913679 
L 894.842321 307.393893 
L 896.404642 316.913679 
L 897.966963 383.552182 
L 899.529284 393.071968 
L 901.091605 393.071968 
L 902.653926 345.473037 
L 904.216247 354.992824 
L 905.778568 354.992824 
L 907.340889 316.913679 
L 908.90321 383.552182 
L 910.465531 412.11154 
L 912.027852 393.071968 
L 913.590173 221.715818 
L 915.152494 393.071968 
L 916.714815 297.874107 
L 918.277136 288.354321 
L 919.839457 383.552182 
L 921.401778 412.11154 
L 922.964099 393.071968 
L 924.52642 393.071968 
L 926.088741 374.032396 
L 927.651062 345.473037 
L 929.213383 354.992824 
L 932.338025 412.11154 
L 933.900346 364.51261 
L 935.462667 307.393893 
L 937.024988 345.473037 
L 938.587309 402.591754 
L 940.14963 364.51261 
L 943.274272 383.552182 
L 944.836593 345.473037 
L 946.398914 383.552182 
L 947.961235 364.51261 
L 949.523556 297.874107 
L 951.085877 335.953251 
L 952.648198 335.953251 
L 954.210519 374.032396 
L 955.77284 354.992824 
L 957.33516 383.552182 
L 960.459802 345.473037 
L 962.022123 316.913679 
L 963.584444 374.032396 
L 965.146765 364.51261 
L 968.271407 364.51261 
L 969.833728 402.591754 
L 971.396049 307.393893 
L 972.95837 326.433465 
L 974.520691 335.953251 
L 976.083012 307.393893 
L 977.645333 316.913679 
L 979.207654 364.51261 
L 980.769975 402.591754 
L 982.332296 383.552182 
L 983.894617 383.552182 
L 985.456938 440.670898 
L 987.019259 345.473037 
L 988.58158 374.032396 
L 990.143901 307.393893 
L 991.706222 421.631326 
L 993.268543 297.874107 
L 994.830864 345.473037 
L 997.955506 421.631326 
L 999.517827 383.552182 
L 1001.080148 297.874107 
L 1002.642469 402.591754 
L 1004.20479 364.51261 
L 1005.767111 316.913679 
L 1007.329432 335.953251 
L 1008.891753 440.670898 
L 1010.454074 393.071968 
L 1012.016395 383.552182 
L 1013.578716 383.552182 
L 1015.141037 288.354321 
L 1016.703358 288.354321 
L 1018.265679 335.953251 
L 1019.828 364.51261 
L 1021.390321 383.552182 
L 1022.952642 364.51261 
L 1024.514963 402.591754 
L 1026.077284 326.433465 
L 1027.639605 364.51261 
L 1029.201926 364.51261 
L 1030.764247 402.591754 
L 1032.326568 278.834535 
L 1033.888889 450.190684 
L 1035.45121 393.071968 
L 1037.013531 354.992824 
L 1038.575852 183.636674 
L 1040.138173 326.433465 
L 1041.700494 383.552182 
L 1043.262815 393.071968 
L 1044.825136 421.631326 
L 1046.387457 412.11154 
L 1047.949778 421.631326 
L 1049.512099 374.032396 
L 1051.07442 412.11154 
L 1052.636741 431.151112 
L 1054.199062 431.151112 
L 1055.761383 412.11154 
L 1057.323704 440.670898 
L 1058.886025 421.631326 
L 1060.448346 412.11154 
L 1063.572988 412.11154 
L 1065.135309 421.631326 
L 1066.69763 393.071968 
L 1068.259951 383.552182 
L 1069.822272 326.433465 
L 1071.384593 335.953251 
L 1072.946914 383.552182 
L 1074.509235 421.631326 
L 1076.071556 421.631326 
L 1077.633877 450.190684 
L 1079.196198 393.071968 
L 1080.758519 393.071968 
L 1082.32084 431.151112 
L 1083.88316 374.032396 
L 1085.445481 374.032396 
L 1087.007802 412.11154 
L 1088.570123 431.151112 
L 1091.694765 374.032396 
L 1093.257086 354.992824 
L 1094.819407 402.591754 
L 1096.381728 374.032396 
L 1097.944049 374.032396 
L 1099.50637 354.992824 
L 1101.068691 393.071968 
L 1102.631012 374.032396 
L 1104.193333 412.11154 
L 1105.755654 431.151112 
L 1107.317975 374.032396 
L 1108.880296 383.552182 
L 1110.442617 383.552182 
L 1112.004938 412.11154 
L 1113.567259 459.710471 
L 1115.12958 335.953251 
L 1118.254222 354.992824 
L 1119.816543 402.591754 
L 1121.378864 431.151112 
L 1122.941185 440.670898 
L 1124.503506 345.473037 
L 1126.065827 412.11154 
L 1127.628148 383.552182 
L 1129.190469 393.071968 
L 1130.75279 297.874107 
L 1132.315111 335.953251 
L 1133.877432 412.11154 
L 1135.439753 354.992824 
L 1137.002074 364.51261 
L 1138.564395 364.51261 
L 1140.126716 316.913679 
L 1141.689037 412.11154 
L 1143.251358 469.230257 
L 1144.813679 402.591754 
L 1146.376 421.631326 
L 1147.938321 402.591754 
L 1149.500642 440.670898 
L 1151.062963 297.874107 
L 1152.625284 335.953251 
L 1154.187605 450.190684 
L 1155.749926 431.151112 
L 1157.312247 402.591754 
L 1158.874568 440.670898 
L 1160.436889 450.190684 
L 1161.99921 412.11154 
L 1163.561531 450.190684 
L 1165.123852 412.11154 
L 1168.248494 412.11154 
L 1169.810815 307.393893 
L 1171.373136 374.032396 
L 1172.935457 354.992824 
L 1174.497778 402.591754 
L 1176.060099 431.151112 
L 1177.62242 421.631326 
L 1179.184741 374.032396 
L 1180.747062 488.269829 
L 1182.309383 421.631326 
L 1183.871704 421.631326 
L 1185.434025 221.715818 
L 1186.996346 393.071968 
L 1188.558667 431.151112 
L 1190.120988 459.710471 
L 1191.683309 421.631326 
L 1193.24563 393.071968 
L 1194.807951 393.071968 
L 1196.370272 440.670898 
L 1197.932593 431.151112 
L 1199.494914 383.552182 
L 1201.057235 383.552182 
L 1202.619556 250.275176 
L 1204.181877 402.591754 
L 1205.744198 354.992824 
L 1207.306519 354.992824 
L 1208.86884 393.071968 
L 1210.43116 450.190684 
L 1211.993481 421.631326 
L 1213.555802 383.552182 
L 1215.118123 440.670898 
L 1216.680444 393.071968 
L 1218.242765 402.591754 
L 1219.805086 383.552182 
L 1221.367407 393.071968 
L 1222.929728 307.393893 
L 1224.492049 383.552182 
L 1226.05437 316.913679 
L 1227.616691 364.51261 
L 1230.741333 345.473037 
L 1232.303654 421.631326 
L 1233.865975 297.874107 
L 1235.428296 126.517957 
L 1236.990617 335.953251 
L 1238.552938 412.11154 
L 1243.239901 412.11154 
L 1244.802222 345.473037 
L 1246.364543 393.071968 
L 1247.926864 412.11154 
L 1251.051506 412.11154 
L 1252.613827 383.552182 
L 1254.176148 478.750043 
L 1255.738469 383.552182 
L 1260.425432 354.992824 
L 1261.987753 374.032396 
L 1263.550074 450.190684 
L 1265.112395 469.230257 
L 1266.674716 421.631326 
L 1268.237037 383.552182 
L 1269.799358 431.151112 
L 1271.361679 412.11154 
L 1272.924 421.631326 
L 1272.924 421.631326 
" style="fill:none;stroke:#000080;stroke-linecap:square;stroke-width:1.5;"/>
   </g>
   <g id="patch_3">
    <path d="M 133.992 569.664 
L 133.992 35.604 
" style="fill:none;stroke:#000000;stroke-linecap:square;stroke-linejoin:miter;stroke-width:0.8;"/>
   </g>
   <g id="patch_4">
    <path d="M 1272.924 569.664 
L 1272.924 35.604 
" style="fill:none;stroke:#000000;stroke-linecap:square;stroke-linejoin:miter;stroke-width:0.8;"/>
   </g>
   <g id="patch_5">
    <path d="M 133.992 569.664 
L 1272.924 569.664 
" style="fill:none;stroke:#000000;stroke-linecap:square;stroke-linejoin:miter;stroke-width:0.8;"/>
   </g>
   <g id="patch_6">
    <path d="M 133.992 35.604 
L 1272.924 35.604 
" style="fill:none;stroke:#000000;stroke-linecap:square;stroke-linejoin:miter;stroke-width:0.8;"/>
   </g>
   <g id="text_33">
    <!-- Graves en los años 2018 y 2019 -->
    <g transform="translate(606.529875 29.604)scale(0.12 -0.12)">
     <defs>
      <path d="M 54.890625 33.015625 
L 54.890625 0 
L 45.90625 0 
L 45.90625 32.71875 
Q 45.90625 40.484375 42.875 44.328125 
Q 39.84375 48.1875 33.796875 48.1875 
Q 26.515625 48.1875 22.3125 43.546875 
Q 18.109375 38.921875 18.109375 30.90625 
L 18.109375 0 
L 9.078125 0 
L 9.078125 54.6875 
L 18.109375 54.6875 
L 18.109375 46.1875 
Q 21.34375 51.125 25.703125 53.5625 
Q 30.078125 56 35.796875 56 
Q 45.21875 56 50.046875 50.171875 
Q 54.890625 44.34375 54.890625 33.015625 
z
M 32.1875 66.890625 
L 29.390625 69.578125 
Q 28.328125 70.5625 27.515625 71.015625 
Q 26.71875 71.484375 26.078125 71.484375 
Q 24.21875 71.484375 23.34375 69.703125 
Q 22.46875 67.921875 22.359375 63.921875 
L 16.265625 63.921875 
Q 16.359375 70.515625 18.84375 74.09375 
Q 21.34375 77.6875 25.78125 77.6875 
Q 27.640625 77.6875 29.203125 77 
Q 30.765625 76.3125 32.578125 74.703125 
L 35.359375 72.015625 
Q 36.421875 71.046875 37.234375 70.578125 
Q 38.046875 70.125 38.671875 70.125 
Q 40.53125 70.125 41.40625 71.90625 
Q 42.28125 73.6875 42.390625 77.6875 
L 48.484375 77.6875 
Q 48.390625 71.09375 45.890625 67.5 
Q 43.40625 63.921875 38.96875 63.921875 
Q 37.109375 63.921875 35.546875 64.59375 
Q 33.984375 65.28125 32.1875 66.890625 
z
" id="DejaVuSans-241"/>
      <path d="M 31.78125 34.625 
Q 24.75 34.625 20.71875 30.859375 
Q 16.703125 27.09375 16.703125 20.515625 
Q 16.703125 13.921875 20.71875 10.15625 
Q 24.75 6.390625 31.78125 6.390625 
Q 38.8125 6.390625 42.859375 10.171875 
Q 46.921875 13.96875 46.921875 20.515625 
Q 46.921875 27.09375 42.890625 30.859375 
Q 38.875 34.625 31.78125 34.625 
z
M 21.921875 38.8125 
Q 15.578125 40.375 12.03125 44.71875 
Q 8.5 49.078125 8.5 55.328125 
Q 8.5 64.0625 14.71875 69.140625 
Q 20.953125 74.21875 31.78125 74.21875 
Q 42.671875 74.21875 48.875 69.140625 
Q 55.078125 64.0625 55.078125 55.328125 
Q 55.078125 49.078125 51.53125 44.71875 
Q 48 40.375 41.703125 38.8125 
Q 48.828125 37.15625 52.796875 32.3125 
Q 56.78125 27.484375 56.78125 20.515625 
Q 56.78125 9.90625 50.3125 4.234375 
Q 43.84375 -1.421875 31.78125 -1.421875 
Q 19.734375 -1.421875 13.25 4.234375 
Q 6.78125 9.90625 6.78125 20.515625 
Q 6.78125 27.484375 10.78125 32.3125 
Q 14.796875 37.15625 21.921875 38.8125 
z
M 18.3125 54.390625 
Q 18.3125 48.734375 21.84375 45.5625 
Q 25.390625 42.390625 31.78125 42.390625 
Q 38.140625 42.390625 41.71875 45.5625 
Q 45.3125 48.734375 45.3125 54.390625 
Q 45.3125 60.0625 41.71875 63.234375 
Q 38.140625 66.40625 31.78125 66.40625 
Q 25.390625 66.40625 21.84375 63.234375 
Q 18.3125 60.0625 18.3125 54.390625 
z
" id="DejaVuSans-56"/>
      <path d="M 10.984375 1.515625 
L 10.984375 10.5 
Q 14.703125 8.734375 18.5 7.8125 
Q 22.3125 6.890625 25.984375 6.890625 
Q 35.75 6.890625 40.890625 13.453125 
Q 46.046875 20.015625 46.78125 33.40625 
Q 43.953125 29.203125 39.59375 26.953125 
Q 35.25 24.703125 29.984375 24.703125 
Q 19.046875 24.703125 12.671875 31.3125 
Q 6.296875 37.9375 6.296875 49.421875 
Q 6.296875 60.640625 12.9375 67.421875 
Q 19.578125 74.21875 30.609375 74.21875 
Q 43.265625 74.21875 49.921875 64.515625 
Q 56.59375 54.828125 56.59375 36.375 
Q 56.59375 19.140625 48.40625 8.859375 
Q 40.234375 -1.421875 26.421875 -1.421875 
Q 22.703125 -1.421875 18.890625 -0.6875 
Q 15.09375 0.046875 10.984375 1.515625 
z
M 30.609375 32.421875 
Q 37.25 32.421875 41.125 36.953125 
Q 45.015625 41.5 45.015625 49.421875 
Q 45.015625 57.28125 41.125 61.84375 
Q 37.25 66.40625 30.609375 66.40625 
Q 23.96875 66.40625 20.09375 61.84375 
Q 16.21875 57.28125 16.21875 49.421875 
Q 16.21875 41.5 20.09375 36.953125 
Q 23.96875 32.421875 30.609375 32.421875 
z
" id="DejaVuSans-57"/>
     </defs>
     <use xlink:href="#DejaVuSans-71"/>
     <use x="77.490234" xlink:href="#DejaVuSans-114"/>
     <use x="118.603516" xlink:href="#DejaVuSans-97"/>
     <use x="179.882812" xlink:href="#DejaVuSans-118"/>
     <use x="239.0625" xlink:href="#DejaVuSans-101"/>
     <use x="300.585938" xlink:href="#DejaVuSans-115"/>
     <use x="352.685547" xlink:href="#DejaVuSans-32"/>
     <use x="384.472656" xlink:href="#DejaVuSans-101"/>
     <use x="445.996094" xlink:href="#DejaVuSans-110"/>
     <use x="509.375" xlink:href="#DejaVuSans-32"/>
     <use x="541.162109" xlink:href="#DejaVuSans-108"/>
     <use x="568.945312" xlink:href="#DejaVuSans-111"/>
     <use x="630.126953" xlink:href="#DejaVuSans-115"/>
     <use x="682.226562" xlink:href="#DejaVuSans-32"/>
     <use x="714.013672" xlink:href="#DejaVuSans-97"/>
     <use x="775.292969" xlink:href="#DejaVuSans-241"/>
     <use x="838.671875" xlink:href="#DejaVuSans-111"/>
     <use x="899.853516" xlink:href="#DejaVuSans-115"/>
     <use x="951.953125" xlink:href="#DejaVuSans-32"/>
     <use x="983.740234" xlink:href="#DejaVuSans-50"/>
     <use x="1047.363281" xlink:href="#DejaVuSans-48"/>
     <use x="1110.986328" xlink:href="#DejaVuSans-49"/>
     <use x="1174.609375" xlink:href="#DejaVuSans-56"/>
     <use x="1238.232422" xlink:href="#DejaVuSans-32"/>
     <use x="1270.019531" xlink:href="#DejaVuSans-121"/>
     <use x="1329.199219" xlink:href="#DejaVuSans-32"/>
     <use x="1360.986328" xlink:href="#DejaVuSans-50"/>
     <use x="1424.609375" xlink:href="#DejaVuSans-48"/>
     <use x="1488.232422" xlink:href="#DejaVuSans-49"/>
     <use x="1551.855469" xlink:href="#DejaVuSans-57"/>
    </g>
   </g>
   <g id="legend_1">
    <g id="patch_7">
     <path d="M 1182.178688 72.96025 
L 1265.924 72.96025 
Q 1267.924 72.96025 1267.924 70.96025 
L 1267.924 42.604 
Q 1267.924 40.604 1265.924 40.604 
L 1182.178688 40.604 
Q 1180.178688 40.604 1180.178688 42.604 
L 1180.178688 70.96025 
Q 1180.178688 72.96025 1182.178688 72.96025 
z
" style="fill:#ffffff;opacity:0.8;stroke:#cccccc;stroke-linejoin:miter;"/>
    </g>
    <g id="line2d_57">
     <path d="M 1184.178688 48.702438 
L 1204.178688 48.702438 
" style="fill:none;stroke:#ff8c00;stroke-linecap:square;stroke-width:1.5;"/>
    </g>
    <g id="line2d_58"/>
    <g id="text_34">
     <!-- reales -->
     <g transform="translate(1212.178688 52.202438)scale(0.1 -0.1)">
      <use xlink:href="#DejaVuSans-114"/>
      <use x="38.863281" xlink:href="#DejaVuSans-101"/>
      <use x="100.386719" xlink:href="#DejaVuSans-97"/>
      <use x="161.666016" xlink:href="#DejaVuSans-108"/>
      <use x="189.449219" xlink:href="#DejaVuSans-101"/>
      <use x="250.972656" xlink:href="#DejaVuSans-115"/>
     </g>
    </g>
    <g id="line2d_59">
     <path d="M 1184.178688 63.380563 
L 1204.178688 63.380563 
" style="fill:none;stroke:#000080;stroke-linecap:square;stroke-width:1.5;"/>
    </g>
    <g id="line2d_60"/>
    <g id="text_35">
     <!-- prediccion -->
     <g transform="translate(1212.178688 66.880563)scale(0.1 -0.1)">
      <use xlink:href="#DejaVuSans-112"/>
      <use x="63.476562" xlink:href="#DejaVuSans-114"/>
      <use x="102.339844" xlink:href="#DejaVuSans-101"/>
      <use x="163.863281" xlink:href="#DejaVuSans-100"/>
      <use x="227.339844" xlink:href="#DejaVuSans-105"/>
      <use x="255.123047" xlink:href="#DejaVuSans-99"/>
      <use x="310.103516" xlink:href="#DejaVuSans-99"/>
      <use x="365.083984" xlink:href="#DejaVuSans-105"/>
      <use x="392.867188" xlink:href="#DejaVuSans-111"/>
      <use x="454.048828" xlink:href="#DejaVuSans-110"/>
     </g>
    </g>
   </g>
  </g>
 </g>
 <defs>
  <clipPath id="p5abef19d42">
   <rect height="534.06" width="1138.932" x="133.992" y="35.604"/>
  </clipPath>
 </defs>
</svg>
